<?xml version="1.0" encoding="UTF-8"?>
<svg id="Layer_1" data-name="Layer 1" xmlns="http://www.w3.org/2000/svg" viewBox="0 0 1920 1080">
  <path d="M191.16,527.26c-.02,17.93-.29,35.89,1.07,53.78,1.37,18.01,4.18,35.91,6.52,53.81,1.16,8.86,1.68,17.78,2.58,26.66s2.61,17.96,3.94,26.95,2.2,17.69,2.66,26.6.98,18.07,1.81,27.1c.41,4.45.82,8.91,1.18,13.36s.69,8.73,1.63,13.06,1.9,8.46,2.46,12.8,1.04,8.43,1.85,12.59c.38,1.99.87,3.95,1.53,5.87,1.04,3.02,5.87,1.73,4.82-1.33-2.74-7.96-2.7-16.55-4.36-24.74-.84-4.13-2.06-8.19-2.47-12.4-.43-4.44-.7-8.9-1.1-13.34-.81-8.93-1.62-17.84-2.05-26.79s-.97-17.89-2.12-26.8-2.84-17.68-4.03-26.55-1.64-17.95-2.59-26.92c-1.88-17.88-4.91-35.63-6.69-53.52-1.77-17.77-1.69-35.65-1.64-53.49,0-2.24.01-4.47.01-6.71,0-3.22-5-3.22-5,0h0Z"/>
  <path d="M218.18,799.01c5.05.97,10.12.71,15.23.73,2.41.01,4.82.26,7.23.05,2-.17,4.55-.36,6.05-1.86,1.63-1.62,1.4-4.06.97-6.11s-1.03-4.26-1.57-6.38c-1.26-4.96-2.68-9.88-3.83-14.86-2.29-9.9-3.54-20-4.4-30.12s-1.45-20.42-1.88-30.64-.66-20.86-.38-31.29c.27-10.35,1-20.69.89-31.04s-1.35-20.75-2.45-31.06c-.28-2.6-.67-5.2-.91-7.81s-.2-5.13-.17-7.7c.06-5.11.06-10.21.29-15.31.45-10.43,1.25-20.82,1.51-31.26.24-9.69.03-19.39.35-29.07.06-1.76-.21-3.7-1.57-4.96-2.37-2.17-5.91,1.35-3.54,3.54.33.3.01-.12.07.16.04.19.05.44.05.76,0,.77-.08,1.53-.14,2.29-.18,2.15-.06,4.35-.06,6.51,0,5.02.02,10.03-.05,15.05-.14,10.09-.59,20.18-1.25,30.25-.33,5.02-.54,10.04-.61,15.07s-.35,10.01.15,14.94c1.01,9.98,2.37,19.96,3.02,29.97s.19,19.98-.23,29.96-.56,20.05-.33,30.1.76,20.16,1.41,30.23,1.44,19.59,2.89,29.3,4.07,19.25,6.49,28.85c.5,2,1.1,4.03,1.48,6.06.07.37.07.72.12,1.09.14,1,.05-.44.29-.13-.03-.04-2.2.44-2.39.46-2.31.26-4.66,0-6.98-.02-2.43-.03-4.86.07-7.3.04s-4.76-.15-7.11-.6c-1.32-.25-2.7.37-3.08,1.75-.34,1.22.41,2.82,1.75,3.08h0Z"/>
  <path d="M249.17,791.65c4.02-1.97,8.02-3.98,11.93-6.15,1.4-.78,2.9-1.47,4.01-2.66,1.52-1.63,1.69-3.7,1.38-5.83s-.62-4.04-.67-6.16c-.05-2.28,0-4.56.13-6.83.24-4.64.83-9.29.64-13.94-.1-2.35-.57-4.65-.91-6.98-.31-2.13-.31-4.28-.43-6.42-.25-4.55-1.35-8.98-1.78-13.51-.89-9.23-2.12-18.37-3.29-27.57s-1.3-18.45-2.16-27.68c-.43-4.59-.17-9.15.06-13.74s.44-9.44.59-14.16c.31-9.37.45-18.75.33-28.13-.06-4.7-.16-9.4-.57-14.09s-.93-9.29-.93-13.97.02-9.32.02-13.98-.15-9.42.09-14.11,1.04-9.13,1.18-13.73c.06-2.11-.31-4.41.05-6.49.17-.97.53-1.91.8-2.85.28-1.02.37-2.06.57-3.09s.47-2.01.56-3.04c.05-.51.03-1.01-.06-1.52-.04-.23-.07-.46-.16-.68-.15-.36.02-.47-.12.02l-.64,1.1.24-.3c.85-1.05,1.03-2.51,0-3.54-.88-.88-2.68-1.06-3.54,0-.74.92-1.18,1.83-1.01,3.04.13.88.38,1.39.19,2.29-.42,1.99-.74,3.94-1.31,5.9-.64,2.22-.58,4.33-.55,6.61s-.08,4.37-.25,6.54c-.38,4.66-1.03,9.23-1.06,13.92s.02,9.38.02,14.07-.15,9.17.09,13.73.84,9.29,1.11,13.95c.55,9.33.39,18.75.22,28.09s-.62,18.84-1.06,28.26c-.21,4.53.09,8.94.45,13.46s.41,9.22.76,13.82c.69,9.21,2.33,18.31,3.36,27.48.52,4.6.78,9.24,1.45,13.83.32,2.2.75,4.38,1.05,6.59s.34,4.44.46,6.66c.23,4.5,1.3,8.82,1.2,13.35s-.65,9.25-.77,13.88c-.06,2.26-.05,4.53.15,6.79.09,1.06.26,2.09.46,3.14.11.58.4,1.71.22,2.17-.38.95-2.2,1.53-3.07,2.01-1.96,1.08-3.92,2.15-5.91,3.16s-4.01,2-6.02,2.99c-1.21.59-1.54,2.32-.9,3.42.72,1.24,2.2,1.49,3.42.9h0Z"/>
  <path d="M170.09,486.53c-.48,8.86-1.2,17.67-1.56,26.53-.2,4.91.14,10.23,5.88,11.47,3.45.75,7.29.59,10.81,1.13,3.22.5,6.3.71,9.54.25,8.32-1.19,16.85-.31,25.08-1.83s16.04-4.75,24.37-6.04,16.9-1.29,25.25-2.02c7.91-.69,16.12-1.71,24.05-1.72,4.19,0,8.39-.09,12.57.29s8.28,1.41,12.52,1.41c8.48-.01,16.42-1.59,24.94-.66s16.76.22,25.22-.63c17.84-1.79,35.97,2.95,53.34,6.42,9.09,1.82,18.28,3.02,27.43,4.53,8.63,1.42,17.13,3.38,25.82,4.45,17.99,2.22,36.2,2,54.28,1.41,36.81-1.21,73.51-4.4,110.3-6.03,18.72-.83,37.41-.81,56.14-.8,18.5.01,37.02-.4,55.5.61,18.52,1.01,36.96,2.49,55.52,2.42s36.68-1.07,55-1.92c37.46-1.74,74.92-1.76,112.35.75,18.67,1.25,36.76,4.57,55.23,7.27,8.21,1.2,16.45,2.13,24.68,3.18,8.73,1.11,17.53,2.83,26.36,2.74s18.38-2.02,27.59-2.76,17.78-.67,26.66-.62c9.62.05,19.05.17,28.58,1.62,6.47.99,13.06,1.99,19.62,2.17,5.06.14,10.61-.35,14.24-4.28,2.18-2.36-1.35-5.91-3.54-3.54-4.04,4.39-12.24,2.8-17.54,2.28-8.22-.8-16.36-2.62-24.61-3.02-17.3-.84-35.11-.8-52.3,1.36-8.74,1.1-17.38,2.22-26.2,1.45s-17.06-2.19-25.58-3.24c-17.15-2.11-34.08-5.56-51.23-7.68-35.68-4.42-72.33-4.63-108.23-3.69-36.1.95-72.13,4.19-108.25,2.26-17.9-.96-35.72-2.43-53.66-2.38s-36.2-.08-54.3,0c-35.74.14-71.39,3.24-107.06,5.19s-71.64,3.97-107.18-2.81c-8.78-1.68-17.66-2.79-26.48-4.28s-17.13-3.47-25.72-5.07c-7.77-1.44-15.62-2.42-23.5-3.09-8.65-.74-16.99.9-25.6,1.2s-16.27-1.54-24.42-.91c-3.87.3-7.72.92-11.6,1.08-4.26.17-8.31-.72-12.52-1.19-15.63-1.75-31.53.82-47.07,2.24-7.44.68-14.68.45-22.05,1.98-8.3,1.72-16.35,5.37-24.87,5.76-4.1.18-8.19-.04-12.29.25s-7.78,1.37-11.68,1.23c-3.5-.13-6.92-1.17-10.41-1.41-1.91-.13-4.83.3-5.92-1.92-.67-1.38-.05-3.99,0-5.5.27-8.65,1.06-17.23,1.54-25.87.18-3.22-4.82-3.21-5,0h0Z"/>
  <path d="M1199.52,527.5c-.87-2.42-1.62-4.92-1.6-7.52.01-2.45,1.18-4.46,1.56-6.81.42-2.57-.46-5.28.18-7.78.6-2.35,1.77-4.46,1.44-6.97-.18-1.34-1.02-2.5-2.5-2.5-1.21,0-2.68,1.15-2.5,2.5.3,2.26-1.04,4.21-1.42,6.39-.47,2.68.5,5.51-.26,8.11s-1.56,4.81-1.5,7.5c.07,2.89.81,5.7,1.78,8.4.46,1.27,1.7,2.12,3.08,1.75,1.23-.34,2.2-1.8,1.75-3.08h0Z"/>
  <path d="M181.53,486.03c16.34-2.03,32.69-4.19,49.15-5,15.76-.78,31.61-2.56,47.38-2.73,7.55-.08,14.89,1.72,22.44,1.62,8.03-.11,16.04-1.03,24.06-1.44,16.27-.82,32.57-1.04,48.86-.81,33.12.47,66.23,2.34,99.34,3.39,33.19,1.05,66.4,2.24,99.49,5.13,16.72,1.46,33.35,2.92,50.14,3.33,16.42.4,32.84.22,49.26.43,33.25.41,66.45-.58,99.69-.36,33.52.22,67.03-.22,100.53,1.12,16.4.66,32.79.15,49.19.27s32.79,1.4,49.25.95,32.51-.46,48.75-.97c16.22-.51,32.28-1.63,48.52-.85s31.54.72,47.29,1.93c7.91.6,15.84,1.1,23.74,1.78s15.67.61,23.52,1.1,15.15,2.51,22.91,2.48c3.22-.01,3.22-5.01,0-5-7.75.03-15.22-2.04-22.91-2.48s-15.64-.42-23.52-1.1c-15.8-1.36-31.68-2.6-47.54-2.99-16.01-.39-32.05-1.49-48.07-.97s-32.14,1.05-48.24,1.38-33.05,1.29-49.59.56-32.4-.85-48.65-.73c-16.79.12-33.51-1.06-50.29-1.3-16.37-.24-32.74.1-49.11,0-33.3-.19-66.6.67-99.89.46-33.08-.2-66.39.42-99.4-1.81-16.74-1.13-33.41-3.03-50.16-4.11s-33.49-1.83-50.25-2.44c-33.18-1.21-66.37-2.32-99.55-3.57-16.26-.61-32.54-.89-48.82-.64s-32.36,2.02-48.54,2.24c-7.55.1-14.89-1.7-22.44-1.62s-15.76,1.05-23.64,1.42c-16.3.76-32.63,1.6-48.85,3.4-8.03.89-16.04,1.92-24.05,2.92-3.15.39-3.19,5.4,0,5h0Z"/>
  <path d="M184.59,485.16c3.22,0,3.22-5,0-5s-3.22,5,0,5h0Z"/>
  <path d="M179.35,481.32c-2.96,1.23-6.19,1.97-8.64,4.15l3.54,3.54c.04-.05.09-.1.14-.14l-.51.39c.05-.04.11-.07.17-.1l-.6.25c.06-.03.13-.05.19-.06l-.66.09h.11c.69-.1,1.26-.23,1.77-.75.43-.43.76-1.15.73-1.77s-.24-1.32-.73-1.77c-.45-.42-1.13-.81-1.77-.73-.92.12-1.72.33-2.37,1.04-.89.96-1.02,2.6,0,3.54s2.49.93,3.54,0c.13-.11.26-.22.39-.32l-.51.39c.82-.62,1.75-1.08,2.7-1.49l-.6.25c1.46-.62,2.98-1.08,4.45-1.69.63-.26,1.14-.54,1.49-1.15.31-.54.45-1.33.25-1.93s-.57-1.19-1.15-1.49-1.32-.5-1.93-.25h0Z"/>
  <path d="M1183.46,497.22c5.01.02,9.98.7,14.98.75,1.31.01,2.56-1.16,2.5-2.5s-1.1-2.49-2.5-2.5c-5-.05-9.98-.73-14.98-.75-1.31,0-2.56,1.15-2.5,2.5s1.1,2.49,2.5,2.5h0Z"/>
  <path d="M1193.29,529.69c.46.96.95,1.91,1.37,2.89l-.25-.6c.39.93.71,1.89.86,2.89l-.09-.66c.08.68.08,1.36.22,2.03.16.82.65,1.64,1.28,2.2.97.88,2.59,1.03,3.54,0,.88-.96,1.04-2.6,0-3.54-.05-.04-.1-.09-.15-.14-.14-.14-.07-.05.19.27-.03-.1-.12-.2-.16-.3l.25.6c-.08-.21-.13-.42-.16-.64l.09.66c-.08-.74-.11-1.48-.26-2.22-.13-.64-.32-1.27-.55-1.87-.53-1.41-1.21-2.74-1.87-4.09-.57-1.18-2.35-1.59-3.42-.9-1.21.78-1.51,2.16-.9,3.42h0Z"/>
  <path d="M308.41,519.31c-3.68,3.85-1.99,9.94-1.1,14.55.21,1.08.35,1.82.4,2.64.1,1.69.12,3.38.21,5.07.19,3.6.45,7.2.73,10.8s.5,7.16.94,10.72.97,6.89,1.45,10.34.81,6.66.89,10.01c.04,1.74-.03,3.47.1,5.21.15,1.92.45,3.82.75,5.72.53,3.39.81,6.69.71,10.12-.1,3.6-.21,7.13.32,10.7,1.07,7.14,1.08,14.33,1.04,21.53-.09,14.66.48,29.31,1.18,43.95.79,16.47,1.66,32.94,1.67,49.43,0,3.22,5,3.22,5,0-.02-29.03-2.74-57.97-2.86-87-.03-7.12.23-14.25-.29-21.35-.25-3.54-1.01-7.04-1.16-10.57s.23-7.02.1-10.53-.84-6.77-1.28-10.15-.21-6.9-.46-10.35c-.49-6.82-1.9-13.53-2.53-20.34-.72-7.76-1.05-15.54-1.52-23.32-.16-2.66-.9-5.25-1.31-7.87-.18-1.16-.28-2.36-.22-3.54.03-.55.05-.72.23-1.32.09-.3.33-.71.53-.92,2.22-2.33-1.31-5.87-3.54-3.54h0Z"/>
  <path d="M326.69,732.51c2.85.75,6.1,1.47,8.79-.17,3.18-1.93,3.26-5.52,2.42-8.75-.33-1.26-.75-2.49-.87-3.8-.19-2.09-.29-4.18-.31-6.28-.04-3.9.16-7.8.29-11.69.26-7.68-.17-15.29-1.03-22.92-.43-3.83-1-7.64-1.31-11.48s-.44-7.82-.49-11.73c-.1-7.83-.18-15.68.33-23.5s1.08-15.55,1.07-23.38c0-3.94.04-7.87.02-11.81s-.61-7.77-1.05-11.64-.5-7.81-.85-11.71-.79-7.62-1.02-11.44c-.26-4.36.23-8.63.65-12.97s.34-8.64-.35-13.01c-.66-4.14-1.69-8.24-1.9-12.44s.19-8.5.21-12.75c.01-3.22-4.99-3.22-5,0-.01,3.78-.33,7.56-.26,11.34s.7,7.34,1.38,10.96,1.34,7.34,1.24,11.1-.65,7.35-.92,11.02c-.56,7.51.87,14.99,1.29,22.47.21,3.67.51,7.29.95,10.94.46,3.86.62,7.66.61,11.54-.02,7.53.1,15.04-.41,22.56s-1,15.21-1.02,22.87-.07,15.36.64,23.01,1.87,14.84,2.22,22.33c.39,8.41-.6,16.8-.22,25.2.09,1.99.17,4.05.61,6,.32,1.43.99,2.87,1.03,4.35.07,2.64-3.85,1.33-5.41.91-3.11-.82-4.44,4-1.33,4.82h0Z"/>
  <path d="M307.68,518.21c0,3.49-.83,7.15.33,10.55.4,1.16,1.24,1.7,2.41,1.84l1.19.14c.59.07,1.36-.33,1.77-.73.43-.43.76-1.15.73-1.77s-.24-1.32-.73-1.77c-.52-.48-1.07-.65-1.77-.73l-1.19-.14,2.41,1.84c-.13-.38-.23-.77-.31-1.17-.02-.1-.04-.2-.05-.31-.04-.27-.03-.21.03.2.03-.13-.04-.34-.05-.48-.07-.85-.06-1.71-.02-2.56.07-1.64.25-3.27.26-4.91,0-1.31-1.15-2.56-2.5-2.5s-2.5,1.1-2.5,2.5h0Z"/>
  <path d="M328.79,731.17c3.22,0,3.22-5,0-5s-3.22,5,0,5h0Z"/>
  <path d="M337.38,698.24c3.22,0,3.22-5,0-5s-3.22,5,0,5h0Z"/>
  <path d="M337.38,706.83c3.22,0,3.22-5,0-5s-3.22,5,0,5h0Z"/>
  <path d="M341.5,723.67c4.74-3.23,10.66-6.31,10.92-12.76.13-3.09-.86-6.1-.82-9.19.05-3.81.16-7.61.16-11.42,0-15.05-.46-30.1-.41-45.16s.2-30.3,1.2-45.41c.49-7.4.95-14.76.91-22.18s-.37-15.08-.56-22.61c-.21-8.42.08-16.82,0-25.24-.03-3.71-.51-7.46-.12-11.16.3-2.82.25-6.39-3.3-7.03-1.33-.24-2.69.36-3.08,1.75-.33,1.21.41,2.84,1.75,3.08.56.1.07-.05-.21-.42s.05.3.01-.1c.04.46.02.92-.03,1.38-.11,1.29-.29,2.57-.3,3.87-.04,3.21.27,6.42.28,9.63.02,7.26-.22,14.52-.07,21.78.3,14.46,1.1,28.88,0,43.32-2.22,28.96-1.47,58.07-1.12,87.07.05,4.13.07,8.27.02,12.4-.04,3.75-.25,7.41.28,11.13.39,2.76,1.02,5.62-1.08,7.8s-4.59,3.53-6.96,5.15c-1.11.76-1.61,2.2-.9,3.42.65,1.1,2.3,1.66,3.42.9h0Z"/>
  <path d="M178.78,483.62c4.66-7.32,10.06-14.02,16.48-19.88s11.97-11.54,17.99-17.32c2.68-2.58,5.36-5.27,8.11-7.76,3.79-3.43,8.53-4.67,13.55-4.82,8.89-.26,17.74,1.73,26.58,2.32,18.31,1.23,36.66-2.37,54.7-4.93,19.41-2.76,39.08-3.37,58.66-3.1,38.02.53,76.01,4.68,114.06,3.45,19.1-.62,38.11-2.74,57.07-4.99,18.82-2.24,37.58-3.69,56.46-5.16s38.86-3.53,58.4-4.09,38.17-.54,57.25-1.47c38.77-1.91,77.36-.44,116.13.63,38.23,1.06,76.59-.76,114.78,1.01,18.84.87,37.61,2.65,56.48,2.75,19.38.1,38.36.95,57.63,2.98s37.94,2.57,56.75,5.41c18.74,2.83,37.13,7.77,55.88,10.61,8.24,1.25,15.59,4.49,23.74,6.15,8.73,1.77,17.54,3.45,26.29,5.07,4.24.78,8.98,1.18,6.79,6.92-1.21,3.16-4.34,5.93-6.71,8.26-6,5.91-13.08,10.58-19.37,16.17-3.69,3.28-11.03,7.9-11.93,13.15-.53,3.15,4.28,4.5,4.82,1.33.47-2.76,4.5-5.34,6.48-7.19,3.59-3.36,7.3-6.61,11.18-9.64,6.08-4.76,12.42-9.43,17.21-15.57,2.99-3.83,5.55-8.9,2.92-13.61-1.09-1.95-2.71-3.22-4.83-3.85-4.16-1.24-8.87-1.65-13.16-2.56-8.76-1.87-17.86-2.53-26.41-5.28-4.01-1.29-7.45-2.94-11.66-3.59-5.05-.78-10.05-1.64-15.07-2.6-18.39-3.53-36.76-7.81-55.37-9.99-19.55-2.29-39.26-3.4-58.85-5.37-19.91-2-39.73-1.29-59.68-2.04s-38.98-2.79-58.53-2.94c-19.76-.16-39.52.18-59.29.13-40.38-.11-80.74-2.93-121.12-2.55-19.68.18-39.31,1.74-58.98,2.15-20.22.42-40.39.5-60.58,1.97s-39.22,2.98-58.8,4.61c-20.02,1.67-39.91,4.78-59.92,6.56-39.56,3.53-78.94.4-118.5-1.19-19.8-.8-39.66-1.1-59.44.31-19.47,1.39-38.56,5.49-58.03,6.79-10.07.67-19.68.22-29.7-.95-7.84-.92-16.29-2.18-23.92.58-6.77,2.45-12.62,9.1-17.42,14.26-5.74,6.17-12.08,11.47-18.13,17.31s-10.91,12.14-15.3,19.05c-1.73,2.72,2.59,5.23,4.32,2.52h0Z"/>
  <path d="M1207.19,532.48c4.66-4.16,9.8-7.72,14.35-12,1.49-1.41,3.21-2.12,4.87-3.23s1.91-2.7,2.14-4.52c.78-6.13,1.84-12.2,3.18-18.24,1.44-6.48,2.96-12.94,3.73-19.53.67-5.75.24-11.63,4.37-16.22,2.14-2.39-1.38-5.94-3.54-3.54-1.9,2.11-3.37,4.48-4.22,7.21-.75,2.39-.99,4.93-1.17,7.41-.48,6.49-1.63,12.78-3.05,19.13s-2.79,12.67-3.69,19.11c-.2,1.41-.38,2.83-.55,4.25,0,.01-.14.95-.05.37-.02.13-.04.27-.07.4-.03.14-.11.33-.12.48-.02.43.22-.51.04-.14.25-.51.28-.12.32-.36.02-.18.24-.12-.08.03-.27.13-.54.29-.8.43-1.08.56-2.11,1.16-3.08,1.92-1.26.98-2.36,2.12-3.53,3.21-1.28,1.19-2.66,2.26-4.03,3.34-2.89,2.28-5.81,4.52-8.56,6.97-2.4,2.15,1.14,5.67,3.54,3.54h0Z"/>
  <path d="M1201.74,532.19c-1.8.97-3.56,2.01-5.22,3.22-.87.63-1.72,1.28-2.52,2-.15.13-.3.26-.45.4-.21.2.45-.3.2-.15-.09.05-.17.12-.26.18-.04.02-.18.13-.22.12.01,0,.59-.19.24-.1-.11.03-.22.05-.33.08-.26.07.67-.06.15-.04-1.31.04-2.56,1.12-2.5,2.5s1.1,2.55,2.5,2.5,2.57-.58,3.66-1.47c.31-.25.6-.53.9-.8.17-.15.34-.29.52-.43.46-.37-.29.21-.01,0,.12-.09.24-.18.35-.27,1.74-1.29,3.6-2.4,5.51-3.42,1.15-.62,1.61-2.31.9-3.42-.76-1.17-2.19-1.56-3.42-.9h0Z"/>
  <path d="M1164.32,544.56c-1.8,7.51-2.18,15.22-2.31,22.92-.07,3.85-.06,7.7-.37,11.54s-.85,7.69-1.33,11.53-.89,7.66-.94,11.52-.05,7.8-.24,11.7-.45,7.78-.64,11.67-.17,7.81-.37,11.7-.63,7.74-.9,11.62-.25,7.85-.24,11.79c.02,7.96-.02,15.93.09,23.89.21,15.74.81,31.46,1.04,47.2.13,8.93.09,17.87.09,26.81,0,4.28.02,8.56-.14,12.84s-.24,8.34.41,12.5l4.57-1.93c-1.84-2.99-5.36-4.34-8.64-5.06-3.65-.8-7.15-1.05-10.81-.19-1.9.45-3.69.74-5.64.82-1.56.06-3.48.22-4.87-.55-1.75-.96-3.18-2-5.29-1.85-2.44.16-4.51,1.39-6.31,2.98-2.41,2.14,1.13,5.66,3.54,3.54.98-.87,2.54-1.95,3.9-1.38s2.29,1.56,3.76,1.91c3.49.83,7.59.46,11.04-.34,1.72-.4,3.34-.83,5.13-.72,1.38.09,2.24.22,3.61.49,1.23.24,2.61.57,3.7,1.02.63.26,1.28.6,1.82,1.01.13.1.68.72.77.85.65,1.05,1.98,1.53,3.12,1.02,1.22-.54,1.65-1.68,1.45-2.95-.55-3.53-.38-7.16-.25-10.71.14-3.77.16-7.54.16-11.32,0-7.77.04-15.54-.03-23.31-.14-15.74-.72-31.47-1.01-47.21-.15-7.96-.16-15.92-.17-23.89,0-3.89-.07-7.78-.02-11.67s.41-7.61.74-11.4c.67-7.76.67-15.57,1.12-23.35.22-3.73.43-7.46.52-11.2s0-7.75.31-11.62c.36-4.33,1.01-8.64,1.51-12.96s.72-8.32.79-12.51c.14-8.53.2-17.08,2.2-25.41.75-3.13-4.07-4.46-4.82-1.33h0Z"/>
  <path d="M1131.67,771.84c-3.67-14.47-.3-29.66,1.25-44.18.86-8.09,1.96-16.15,2.76-24.25s.8-16.26,1.24-24.41c.21-4.02.76-8.09.73-12.12s-.91-7.77-1.06-11.68,0-7.79-.09-11.68c-.08-4.08-.24-8.17-.49-12.24-.49-8.11-1.82-16.17-1.56-24.3.13-4.01.48-8.01.71-12.02s.22-8,.15-12.01c-.07-4.41-.15-8.83.2-13.24.17-2.13.45-4.24.89-6.33s.98-4.23,1.18-6.42c.19-2.04,0-4.13.27-6.15s.92-4.01,1.16-6.06c.51-4.25,0-8.55-.01-12.81-.01-3.22-5.01-3.22-5,0,.02,3.82.4,7.65.14,11.47-.12,1.78-.61,3.47-.95,5.21-.38,1.93-.41,3.82-.47,5.77-.11,3.74-1.19,7.23-1.72,10.91-.57,3.97-.75,7.96-.75,11.96s.16,7.91.12,11.87-.36,8.06-.62,12.09-.47,8.03-.28,12.04.79,8.11,1.12,12.16c.67,8.14.96,16.3.98,24.47,0,2.08-.08,4.17.06,6.26.13,1.96.41,3.9.64,5.85.48,4.02.22,7.88-.05,11.91-.55,8.13-.47,16.28-1.1,24.4s-1.73,16.23-2.66,24.34c-.86,7.5-1.86,15-2.64,22.51s-1.12,15.13-.05,22.66c.26,1.81.61,3.6,1.06,5.37.79,3.12,5.61,1.8,4.82-1.33h0Z"/>
  <path d="M1170.44,542.81c.01-.15.03-.3.05-.45l-.09.66c.2-1.41.6-2.79.89-4.18.36-1.73.57-3.42.27-5.16-.1-.58-.66-1.21-1.15-1.49-.54-.31-1.33-.45-1.93-.25s-1.19.57-1.49,1.15c-.33.63-.37,1.23-.25,1.93.01.07.03.15.04.22l-.09-.66c.09.73.05,1.45-.05,2.18l.09-.66c-.32,2.27-1.08,4.44-1.29,6.73-.06.6.32,1.35.73,1.77s1.15.76,1.77.73c1.46-.07,2.37-1.1,2.5-2.5h0Z"/>
  <path d="M1126.89,772.76c-2.71-1.86-4.78-4.52-6.87-7.02s-4.4-5.46-7.38-6.82c-1.08-.5-2.69-.81-3.55-1.23-.28-.14-.39-.17-.46-.46s.1-.98.26-1.46c1.33-3.79,1.49-7.8,1.98-11.76,1.02-8.32.39-16.64.33-24.99s-.71-16.89-1.39-25.34-1.03-16.93-1.04-25.44.02-17.12.63-25.66c.61-8.47,1.95-16.87,3.35-25.24.7-4.2,1.61-8.37,1.81-12.63s-.04-8.2.36-12.28,1.43-7.97,2.43-11.88,1.86-7.87,2.61-11.85,1.55-8.14,2.58-12.15c.53-2.05,1.23-4.07,1.57-6.17s.46-4.15.47-6.25-.07-4.11-.07-6.16c0-3.22-5.01-3.22-5,0,.01,4.04.42,8.23-.43,12.21-.44,2.08-1.14,4.12-1.65,6.19s-.93,4.04-1.34,6.07c-.84,4.16-1.51,8.35-2.49,12.47s-2.09,7.97-2.87,12.02-1.03,8.34-1.06,12.59-.28,8.24-1.02,12.38c-1.52,8.54-2.96,17.17-3.82,25.81-.87,8.68-1.02,17.4-1.04,26.12s.07,17.17.72,25.76,1.5,17.01,1.68,25.55c.09,4.34.14,8.68.25,13.03s.15,8.53-.21,12.78c-.17,2-.45,3.99-.66,5.98s-.34,3.92-.86,5.79c-.55,1.99-1.4,3.6-.87,5.74.37,1.49,1.36,2.76,2.7,3.51,1.2.67,2.54.85,3.79,1.36.92.37,2.17,1.57,3.05,2.45,2.49,2.5,4.52,5.4,6.98,7.92,1.23,1.26,2.57,2.39,4.03,3.38,1.12.76,2.77.21,3.42-.9.72-1.24.22-2.66-.9-3.42h0Z"/>
  <path d="M1065.82,537.29c-1.98,13.36-2.72,26.9-3.9,40.35-1.19,13.53-1.18,27.1-2.18,40.64-.99,13.45-2.06,26.94-2.07,40.43,0,6.72.47,13.41.36,20.13s-.34,13.42-.34,20.14c0,7.69,0,15.37,0,23.06,0,1.77-.08,3.55-.01,5.31.06,1.63.49,3.19.71,4.79s.41,3.37.62,5.05c.17,1.33.54,3.06.12,4.35l4.18-1.1c-1.39-1.55-3.07-2.48-5.12-2.8-2.6-.4-5.14-.99-7.74-1.45-1.35-.24-2.7-.32-4.06-.49s-2.65-.34-4.01-.05c-1.26.28-2.59.75-3.74,1.33-.91.46-1.62,1.55-2.53,1.91-1.26.49-2.13,1.68-1.75,3.08.33,1.2,1.81,2.24,3.08,1.75,1.14-.44,1.94-1.08,2.88-1.84.77-.62,1.63-.88,2.57-1.17,1.05-.32,1.98-.2,3.06-.06s2.12.18,3.16.37c2.43.43,4.79,1.09,7.24,1.4,1.55.19,2.3.34,3.41,1.57,1.32,1.47,3.63.59,4.18-1.1.89-2.76-.03-6.07-.37-8.85-.35-2.93-.91-5.78-.9-8.73.03-6.69,0-13.39,0-20.09s.03-13.65.21-20.47.08-13.38-.14-20.09c-.44-13.46.53-27.02,1.53-40.44.5-6.73,1.05-13.47,1.27-20.22s.38-13.46.87-20.19c.55-7.59,1.32-15.16,1.92-22.74.59-7.49,1.19-14.99,2.3-22.43.2-1.33-.33-2.69-1.75-3.08-1.18-.32-2.88.4-3.08,1.75h0Z"/>
  <path d="M1038.54,733.27c-.03-6.69.2-13.36.33-20.05s-.29-12.71-.23-19.07c.06-6.65.71-13.28.7-19.93s-.4-13-.65-19.5-.51-12.91-.37-19.37.91-12.76,2.01-19.12c2.25-13.04,4.51-26.08,6.69-39.14,1.16-6.94,1.61-13.99,3.03-20.89.71-3.44,1.87-6.77,2.54-10.22.34-1.72.58-3.49.6-5.25.02-1.28-.48-3.11.07-4.32.67-1.47.18-3.18-1.49-3.67l-.43-.12c-3.09-.91-4.42,3.92-1.33,4.82l.43.12-1.49-3.67c-1.34,2.94-.51,6.05-.9,9.16s-1.35,5.85-2.1,8.74c-1.59,6.11-2.09,12.41-2.92,18.65-.89,6.64-2.25,13.2-3.32,19.81s-2.21,13.22-3.35,19.82-2.35,12.95-2.79,19.54-.31,12.95-.08,19.41.59,13.22.78,19.83-.15,13.3-.45,19.96c-.33,7.35.16,14.7.11,22.05-.06,7.47-.4,14.93-.36,22.41.01,3.22,5.01,3.22,5,0h0Z"/>
  <path d="M1038.03,735.5c-2.12-1.44-3.04-4.39-4.6-6.35-.9-1.13-1.95-2.12-2.91-3.21s-1.46-2.39-2.08-3.66c-.68-1.41-1.41-2.8-2.24-4.13-.4-.64-.87-1.29-1.39-1.85-.23-.24-.48-.45-.72-.68-.12-.11-.24-.22-.35-.35-.18-.2-.16-.15.05.16-.05.33.12-.24.1-.2.16-.25.22-.74.31-1.02.2-.65.36-1.27.43-1.95.18-1.69.21-3.4.33-5.09.26-3.56.51-7.09.52-10.66s-.1-7.09-.12-10.63c-.04-7.16-.41-14.27-.9-21.41s-.36-14.16.38-21.21,1.38-14.39,2.16-21.58,1.79-14.15,3.14-21.17,2.96-13.9,3.88-20.96c1-7.65,1.76-15.32,3.23-22.9.75-3.87,1.92-7.64,2.72-11.49.37-1.78.36-3.61.73-5.38s.75-3.59.76-5.48c.03-3.22-4.97-3.22-5,0-.01,1.45-.28,2.74-.58,4.15-.38,1.78-.37,3.61-.73,5.38-.7,3.38-1.75,6.7-2.44,10.09-1.44,7.06-2.33,14.19-3.17,21.34s-2.27,14.06-3.67,21.08-2.57,14.23-3.42,21.42c-.87,7.34-1.51,14.7-2.25,22.05s-1.26,14.43-.91,21.72,1.08,14.58,1.07,21.9.36,14.22-.21,21.32c-.17,2.09-.32,4.17-.44,6.26-.05.86-.07,1.01-.33,1.86-.23.77-.47,1.52-.54,2.33-.16,1.94.94,3.14,2.21,4.4,1.1,1.09,1.81,2.69,2.51,4.06.82,1.59,1.44,3.27,2.53,4.71s2.35,2.53,3.45,3.87c.93,1.14,1.57,2.49,2.36,3.73.97,1.53,2.1,2.82,3.61,3.84,2.67,1.81,5.17-2.52,2.52-4.32h0Z"/>
  <path d="M1632.91,104.99c-.39,8.15.24,16.29.06,24.44-.09,4.08-.76,8.13-.92,12.21-.08,1.98.1,3.92.15,5.9.05,1.87-.13,3.74-.36,5.59-.54,4.21-1.4,8.42-.92,12.68.16,1.41,1.02,2.41,2.5,2.5,7.98.47,15.95-.26,23.93-.35s15.96.63,23.89,1.53c15.63,1.78,31.23,3.87,46.87,5.54,7.71.82,15.57,1.56,23.33.97,3.69-.28,7.4-.72,11.11-.46s7.36,1.43,11,2.11c3.23.6,6.5.87,9.74,1.36s6.4,1,9.63,1.06,6.65-.38,9.53-1.97,4.15-4.39,4.55-7.53c.42-3.3.56-6.66.9-9.98.41-4.05.86-8.09,1.3-12.13.84-7.77-.3-15.66.89-23.39.85-5.53,4.5-10.79,3.18-16.57-.15-.66-.4-1.41-.75-1.98-.65-1.05-1.77-1.28-2.92-1.35-1.63-.1-3.23.35-4.74.89-1.38.49-2.75,1.09-4.24,1.13-1.84.05-3.68-.23-5.49-.51-7.63-1.21-15.36-1.57-23.03-2.38s-15.34-2.32-22.95-3.92-15.47-2.94-23.36-3.72-15.69-1.58-23.53-2.41-15.92-1.26-23.94-1.56c-3.92-.14-7.85-.34-11.75-.73s-7.84-1.01-11.79-1.02-7.38.62-10.89,1.99c-.64.25-1.32.54-2,.65-.13.02-.99-.06-.32.06-.23-.04-.46-.12-.68-.19-1.11-.36-2.06-.86-3.23-1.33-.99-.4-2.03-.76-3.12-.7-1.67.09-2.78,1.3-3.35,2.78-.81,2.1-.72,4.53-.75,6.75-.02,1.19-.12,2.35.03,3.54.18,1.49.58,2.94.64,4.44.13,3.21,5.13,3.22,5,0-.06-1.49-.38-2.91-.61-4.38-.17-1.06-.09-2.1-.06-3.17.05-1.84-.03-3.69.36-5.21l.07-.23c.1-.29.1-.29,0,0-.12-.06.59-.46-.07.05l-.25.18c-.9.17-1.12.24-.65.23-.02.06-.48-.1-.05.01,1.05.29,1.73.63,2.7,1.04s1.9.85,2.91,1.04c1.49.27,3.01-.08,4.41-.6,2.98-1.12,5.78-1.87,8.99-1.95,3.46-.08,6.91.36,10.35.75,6.89.78,13.8.96,20.72,1.22,13.99.51,27.93,2.45,41.85,3.84s26.87,5.23,40.47,6.99c7.75,1,15.56,1.35,23.31,2.27,3.41.41,6.82,1.31,10.28,1.18,1.69-.07,3.23-.53,4.81-1.1,1.24-.45,2.71-1.14,4.06-.89l-1.49-1.15c.39.81.42,2.08.25,3.25-.19,1.33-.59,2.65-.99,3.93-.93,2.95-1.98,5.75-2.39,8.83-.56,4.18-.52,8.39-.49,12.6s-.12,8.33-.58,12.5-.92,8.41-1.33,12.62c-.18,1.8-.35,3.6-.47,5.4-.09,1.3-.12,2.7-.65,3.92-.98,2.23-4.3,2.79-6.53,2.93-3.3.21-6.6-.26-9.86-.75-3.43-.52-6.9-.81-10.31-1.44-3.88-.72-7.72-1.86-11.65-2.23s-8.03.13-12.02.42-8,.18-12-.04c-8.24-.47-16.42-1.54-24.61-2.56s-16.56-1.88-24.83-2.9-16.7-2.07-25.11-2.43-16.59.35-24.9.38c-2.12,0-4.23-.04-6.35-.16l2.5,2.5c-.42-3.66.18-7.27.68-10.89.27-1.93.53-3.87.59-5.82s-.18-3.85-.18-5.78c0-4.08.67-8.12.89-12.19s.01-8.14-.07-12.2c-.09-4.64-.15-9.29.07-13.93.15-3.22-4.85-3.21-5,0h0Z"/>
  <path d="M1639.3,91.41c.17-2.12.99-3.61,2.59-4.98.19-.16.54-.41.99-.69.5-.31,1.02-.58,1.56-.83.73-.35,1.96-.76,2.99-1.06,2.3-.66,4.66-1.07,7.02-1.48,1.41-.25,2.81-.54,4.25-.61,1.89-.1,3.77.03,5.65.13,3.86.2,7.66-.38,11.51-.36s7.43.89,11.15,1.92c7.09,1.96,14.27,3.68,21.68,3.33,8-.38,15.94-1.5,23.97-1.61s16.04.85,24,1.71c3.85.42,7.69.98,11.46,1.87s7.41,2.3,11.08,3.64c1.78.65,3.6,1.27,5.47,1.62s3.8.41,5.72.46c1.71.04,3.5.03,5.13.6,1.38.49,2.57,1.45,3.84,2.17,3.16,1.79,6.92,2.05,10.48,2.28,1.86.12,3.72.18,5.58.32,1.22.09,2.1.1,3.28.53-.02,0,.17-.05.27.16.11.22-.19-.26-.26-.34-.08-.1.01-.25-.05-.34.04.06-.07.34,0,.18.02-.05-.19.48-.25.61-.32.65-1,1.17-1.77,1.69-2.1,1.4-4.42,2.53-5.94,4.62-.81,1.12-1.17,2.38-1.28,3.75s1.22,2.5,2.5,2.5c1.44,0,2.4-1.15,2.5-2.5-.02.3.06-.28.09-.38.1-.34-.05-.05.22-.43.22-.3.14-.21.22-.29.21-.22.43-.43.66-.63.25-.21.69-.51,1.16-.82.56-.36,1.12-.69,1.68-1.05,2.4-1.51,4.72-3.42,5.14-6.41.47-3.36-2.42-5.1-5.33-5.53-3.51-.53-7.09-.46-10.62-.8-1.57-.15-3.29-.31-4.76-.91s-2.77-1.71-4.21-2.43c-3.65-1.82-7.67-1.34-11.6-1.69s-7.51-2.17-11.09-3.46c-3.92-1.42-7.98-2.36-12.09-3.02s-8.27-1.08-12.42-1.47-8.37-.92-12.57-1.11c-8.42-.38-16.84.4-25.22,1.13-3.98.35-7.89.61-11.88.19-3.68-.38-7.3-1.29-10.87-2.24-3.93-1.06-7.78-2.29-11.86-2.66s-8.13.33-12.22.31-7.88-.48-11.88.25c-2.44.44-4.9.82-7.31,1.4-5.09,1.23-10.32,3.55-12.44,8.69-.54,1.31-.78,2.68-.9,4.09s1.23,2.5,2.5,2.5c1.44,0,2.39-1.15,2.5-2.5h0Z"/>
  <path d="M1819.95,103.6c-4.69,9.27-6.45,19.4-7.48,29.64-.52,5.16-.92,10.33-1.47,15.49-.58,5.52-1.2,11.04-1.65,16.57-.19,2.27-.85,3.8-2.59,5.31-1.92,1.68-4.15,2.99-6.14,4.59-1.05.84-.88,2.65,0,3.54,1.04,1.04,2.48.85,3.54,0,3.55-2.84,8.07-4.94,9.57-9.57.72-2.24.68-4.75.9-7.07.26-2.81.56-5.61.85-8.41.57-5.4,1.11-10.79,1.59-16.2.45-5.02.94-10.05,1.88-15.01,1.07-5.66,2.71-11.2,5.32-16.35,1.45-2.86-2.86-5.4-4.32-2.52h0Z"/>
  <path d="M1769.29,86.86c3.22,0,3.22-5,0-5s-3.22,5,0,5h0Z"/>
  <path d="M1770.16,86.94c.25-2.49.39-4.74.94-7.11.27-1.14.63-2.33,1.09-3.23.44-.84,1-1.83,1.78-2.22.31-.15.09-.09.41-.05-.41-.06.3.12.38.15.18.07.98.53,1.38.76,1.34.78,2.75,1.44,4.27,1.77,3.37.74,6.53-.06,9.7-1.2l-3.16-2.41c.33,2.86-.02,5.68-.32,8.52-.31,2.99-.35,5.93.32,8.87s4.84,2.1,4.91-.66l.02-.98c.08-3.22-4.92-3.22-5,0l-.02.98,4.91-.66c-1.21-5.3.79-10.71.17-16.06-.17-1.47-1.48-3.02-3.16-2.41-2.94,1.06-5.88,1.99-8.87.61-1.39-.64-2.6-1.6-4.08-2.04-1.7-.5-3.48-.17-4.9.87-5.02,3.64-5.21,10.92-5.77,16.5-.13,1.35,1.24,2.5,2.5,2.5,1.46,0,2.37-1.15,2.5-2.5h0Z"/>
  <path d="M1778.02,71.74c1.22-1.43,2.6-2.76,4.09-3.9.54-.41,1.42-1,2.14-1.39.2-.11.39-.21.59-.3.24-.11-.18.05.21-.09.22-.08.45-.13.67-.2.44-.16-.18-.03.07-.03.17,0,.32-.01.49,0l-.3-.03c.22.08.26.09.1.03-.22-.18.3.17.37.21.21.12.41.24.61.37,1,.62,1.98,1.25,3.08,1.69s2.34.53,3.52.59c1.03.05,2.27-.06,3.24.4l-.51-3.93c-2.01,2.37-4.72,4-7.12,5.93-1.05.85-.88,2.65,0,3.54,1.04,1.04,2.48.85,3.54,0,2.41-1.93,5.11-3.55,7.12-5.93.95-1.12,1.06-3.18-.51-3.93s-3.02-.95-4.67-1.04c-.92-.05-2.33-.07-2.95-.32-2.14-.9-3.71-2.78-6.23-2.56-2.28.19-4.36,1.45-6.15,2.8s-3.49,2.85-4.96,4.56c-.88,1.03-1.01,2.53,0,3.54.9.9,2.66,1.03,3.54,0h0Z"/>
  <path d="M1793.81,75.47c-1.59,5.04-2.39,10.23-2.98,15.47-.15,1.3,1.25,2.56,2.5,2.5,1.48-.07,2.34-1.1,2.5-2.5.07-.64.15-1.28.22-1.92.04-.31.08-.63.12-.94q.02-.18,0,0c.02-.18.05-.35.07-.53.17-1.18.35-2.35.57-3.51.46-2.45,1.06-4.86,1.81-7.23.39-1.25-.46-2.78-1.75-3.08-1.36-.31-2.65.41-3.08,1.75h0Z"/>
  <path d="M1673.54,68.65c-.15,1.29-.31,2.58-.38,3.88-.08,1.48.03,2.92.24,4.39.08.58.67,1.22,1.15,1.49.54.31,1.33.45,1.93.25s1.19-.57,1.49-1.15l.25-.6c.12-.44.12-.89,0-1.33l-.02-.15.09.66c-.34-2.5-.03-4.98.25-7.46.07-.59-.33-1.36-.73-1.77-.43-.43-1.15-.76-1.77-.73s-1.32.24-1.77.73c-.48.52-.65,1.07-.73,1.77h0Z"/>
  <path d="M1682.02,66.49c.24-.21.49-.42.74-.62.04-.03.39-.31.16-.13s.11-.08.16-.11c.45-.33.92-.65,1.4-.95.96-.6,1.97-1.13,3-1.59.05-.02.45-.2.15-.07s.11-.04.16-.07c.28-.11.57-.23.85-.33.57-.21,1.15-.4,1.72-.61,1.32-.49,2.52-1.17,3.76-1.83l-3.76-2.16.05.36c.09.69.22,1.26.73,1.77.43.43,1.15.76,1.77.73,1.22-.05,2.67-1.11,2.5-2.5l-.05-.36c-.11-.91-.41-1.67-1.24-2.16s-1.73-.43-2.52,0c-.57.3-1.12.62-1.7.92-.25.13-.5.24-.76.37.45-.22,0,0-.11.04-.14.05-.28.1-.43.15-1.3.45-2.58.95-3.83,1.52-2.3,1.04-4.37,2.45-6.28,4.1-.99.86-.95,2.67,0,3.54,1.06.97,2.48.91,3.54,0h0Z"/>
  <path d="M1694.69,62.69c.97.86,1.97,1.69,2.9,2.59.45.43.88.87,1.28,1.35s.74.96,1.21,1.35c.63.53,1.27.8,2.1.69.75-.1,1.45-.51,1.83-1.19.61-1.11.71-2.42-.09-3.47-.62-.8-1.59-1.25-2.61-1.19-.82.05-1.59.32-2.26.8-.37.27-.7.55-1.04.85-.09.08-.18.16-.27.24-.42.36.25-.15.05-.03-1.16.67-2.38,1.21-3.52,1.92-.54.34-1.08.68-1.59,1.07-.26.19-.51.38-.78.56-.06.04-.41.21-.41.23,0-.08.6-.2.01-.03-1.26.35-2.16,1.79-1.75,3.08s1.73,2.12,3.08,1.75c1.13-.32,1.94-.99,2.88-1.63s1.91-1.23,2.91-1.75c.47-.25.97-.45,1.44-.7.52-.29.99-.7,1.43-1.1.13-.12.39-.27.48-.42-.04.07-.47.31-.18.14.08-.05.47-.23.04-.06-.38.16-.12.06-.03.03.29-.08-.68.04-.3.06-.51-.03-.98-.26-1.37-.58-.61-.62-.78-1.26-.5-1.94.17-.5.19-.61.05-.34l3.93-.51c-.47-.39-.82-.88-1.21-1.35s-.83-.92-1.28-1.35c-.94-.9-1.94-1.73-2.9-2.59s-2.59-1.03-3.54,0c-.87.95-1.04,2.61,0,3.54h0Z"/>
  <path d="M1680.82,70.34c1.8.9,3.72,1.51,5.6,2.21.4.15.8.31,1.19.47.25.11.22.09-.11-.05.25.11.5.21.76.32.21.09.43.18.64.27.81.33,1.63.61,2.49.78,1.28.25,2.76-.36,3.08-1.75.28-1.24-.37-2.81-1.75-3.08-.86-.17-1.68-.45-2.49-.78-.16-.07-.32-.14-.48-.2.33.14.37.16.12.05-.25-.11-.51-.21-.76-.32-.39-.16-.78-.32-1.18-.47-.81-.31-1.63-.58-2.44-.88-.4-.15-.81-.3-1.21-.46-.26-.11-.23-.09.08.04-.11-.05-.23-.1-.34-.15-.23-.1-.45-.21-.68-.32-1.17-.58-2.76-.35-3.42.9-.6,1.13-.35,2.8.9,3.42h0Z"/>
  <path d="M1689.04,78.52c.1.35.18.71.23,1.08l-.09-.66c.07.56.08,1.11.03,1.67-.01.34.06.67.22.96.1.31.27.58.52.8.23.24.49.42.8.52.3.16.62.23.96.22l.66-.09c.42-.12.79-.33,1.1-.64l.39-.51c.23-.39.34-.81.34-1.26.04-.47.05-.94,0-1.41-.07-.68-.16-1.35-.35-2-.18-.61-.6-1.17-1.15-1.49-.29-.18-.6-.28-.93-.3-.33-.07-.66-.06-1,.04-.6.2-1.19.57-1.49,1.15s-.44,1.27-.25,1.93h0Z"/>
  <path d="M1699.9,73.64c.27.94.54,1.87.8,2.81.08.33.23.61.45.85.18.27.41.49.7.64.29.18.6.28.93.3.33.07.66.06,1-.04.6-.2,1.19-.57,1.49-1.15s.44-1.27.25-1.93c-.27-.94-.54-1.87-.8-2.81-.08-.33-.23-.61-.45-.85-.18-.27-.41-.49-.7-.64-.29-.18-.6-.28-.93-.3-.33-.07-.66-.06-1,.04-.6.2-1.19.57-1.49,1.15s-.44,1.27-.25,1.93h0Z"/>
  <path d="M1689.66,76.3l-.28,2.7c-.01.34.06.67.22.96.1.31.27.58.52.8.23.24.49.42.8.52.3.16.62.23.96.22l.66-.09c.42-.12.79-.33,1.1-.64l.39-.51c.23-.39.34-.81.34-1.26l.28-2.7c.01-.34-.06-.67-.22-.96-.1-.31-.27-.58-.52-.8-.23-.24-.49-.42-.8-.52-.3-.16-.62-.23-.96-.22l-.66.09c-.42.12-.79.33-1.1.64l-.39.51c-.23.39-.34.81-.34,1.26h0Z"/>
  <path d="M1700.4,72.49c.09,1.63.1,3.25.18,4.88.03.67.05,1.34.12,2,.05.48.09.97.24,1.43.23.7.53,1.15.99,1.72.38.47,1.19.73,1.77.73.61,0,1.35-.27,1.77-.73s.76-1.1.73-1.77c-.03-.7-.29-1.23-.73-1.77.49.61.18.21.09,0l.25.6c-.08-.23-.14-.45-.17-.69l.09.66c-.14-1.09-.15-2.21-.18-3.3-.04-1.25-.06-2.51-.13-3.76s-1.1-2.56-2.5-2.5c-1.29.06-2.57,1.1-2.5,2.5h0Z"/>
  <path d="M1665.8,177.43c-.91,8.83-2.55,17.72-2.41,26.62.03,2.23.12,4.46-.03,6.69s-.68,4.38-.68,6.59c0,2.04.34,4.07.34,6.12s.14,4.22.09,6.34c-.12,5-.93,10.05-1.44,15.02-.14,1.35,1.25,2.5,2.5,2.5,1.47,0,2.36-1.15,2.5-2.5,1.07-10.5,2.15-20.99,3.22-31.49.52-5.05,1.33-10.16,1.5-15.23.08-2.52-.09-5.03-.03-7.55s.27-5.1.33-7.65c.11-5.76.66-11.43,1.24-17.16.14-1.35-1.25-2.5-2.5-2.5-1.47,0-2.36,1.15-2.5,2.5-.52,5.08-1.1,10.15-1.21,15.26s-.35,9.98-.31,14.98-.78,10.14-1.29,15.17c-.54,5.27-1.08,10.55-1.62,15.82-.61,5.95-1.22,11.9-1.82,17.85h5c.46-4.46,1-8.93,1.36-13.39.16-2.04.07-4.09.02-6.13s-.06-4.18-.27-6.29.11-4.23.39-6.36c.3-2.28.3-4.56.26-6.85-.08-4.5.19-8.94.67-13.42.53-4.98,1.2-9.95,1.72-14.94.14-1.35-1.25-2.5-2.5-2.5-1.47,0-2.36,1.15-2.5,2.5h0Z"/>
  <path d="M1679.69,176.1c-.49,4.71-.37,9.45-.6,14.17-.12,2.43-.5,4.8-.75,7.22-.23,2.27.31,4.42.32,6.67.02,4.82-.81,9.7-1.4,14.47-.29,2.32-.62,4.65-.79,6.98s-.02,4.74-.02,7.11c0,2.67-.36,5.31-.63,7.95s-.55,5.54-.83,8.31c-.14,1.35,1.25,2.5,2.5,2.5,1.47,0,2.36-1.15,2.5-2.5.49-4.77,1.2-9.59,1.43-14.38.11-2.36-.06-4.72-.02-7.08s.35-4.66.63-6.98c.59-4.82,1.26-9.64,1.55-14.49.14-2.27-.28-4.42-.33-6.68-.05-2.41.56-4.8.73-7.2.39-5.36.16-10.74.71-16.09.14-1.35-1.25-2.5-2.5-2.5-1.47,0-2.36,1.15-2.5,2.5h0Z"/>
  <path d="M1690.86,176.06c.72,4.53-.05,9.18-.64,13.68-.3,2.31-.58,4.63-.65,6.96s.21,4.7.09,7.05c-.24,4.77-1.35,9.45-1.57,14.22-.1,2.26.32,4.45.33,6.7,0,2.38-.44,4.82-.68,7.19-.28,2.79-.6,5.57-.89,8.36-.13,1.27-.27,2.51-.14,3.78.12,1.19.53,2.53.34,3.73-.21,1.33.34,2.69,1.75,3.08,1.19.33,2.86-.4,3.08-1.75.38-2.42-.38-4.71-.19-7.12.2-2.55.54-5.1.81-7.65s.48-4.87.75-7.3-.08-4.57-.17-6.92c-.19-4.91,1.05-9.79,1.47-14.66.22-2.46.04-4.86.01-7.32-.03-2.33.2-4.65.48-6.96.67-5.5,1.52-10.87.64-16.4-.21-1.33-1.88-2.08-3.08-1.75-1.42.39-1.96,1.74-1.75,3.08h0Z"/>
  <path d="M1683.51,178.49c.14-.37.29-.73.44-1.09.1-.25.08-.19-.08.18.04-.09.08-.19.12-.28.08-.19.16-.38.24-.57.37-.88.74-1.75,1.07-2.65.6-1.64,1.03-3.38,1.03-5.14,0-1.31-1.15-2.56-2.5-2.5s-2.5,1.1-2.5,2.5c0,.4-.03.79-.08,1.19l.09-.66c-.19,1.36-.62,2.67-1.12,3.95-.12.32-.25.63-.39.95-.05.13-.29.65,0-.02-.07.16-.14.33-.21.5-.33.77-.66,1.54-.96,2.32-.22.57-.04,1.42.25,1.93s.9,1.01,1.49,1.15c.64.15,1.36.11,1.93-.25s.9-.86,1.15-1.49h0Z"/>
  <path d="M1693.59,181.92c3.22,0,3.22-5,0-5s-3.22,5,0,5h0Z"/>
  <path d="M1694.89,170.3c-.05-.06-.1-.12-.14-.18l.39.51c-.21-.28-.38-.59-.52-.92l.25.6c-.24-.58-.4-1.18-.61-1.77-.08-.33-.23-.61-.45-.85-.18-.27-.41-.49-.7-.64-.29-.18-.6-.28-.93-.3-.33-.07-.66-.06-1,.04-.6.2-1.19.57-1.49,1.15l-.25.6c-.12.44-.12.89,0,1.33,0,.04.01.08.02.12l-.09-.66c.08.6.02,1.21.06,1.81.02.35.08.71.13,1.06.02.14.05.28.1.41.22.67.54,1.26,1.04,1.77.45.45,1.13.73,1.77.73.34.01.67-.06.96-.22.31-.1.58-.27.8-.52.44-.48.76-1.1.73-1.77s-.26-1.29-.73-1.77c-.05-.05-.1-.11-.14-.16l.39.51c-.08-.11-.14-.22-.19-.34l.25.6c-.09-.21-.14-.42-.17-.65l.09.66c-.05-.39-.05-.79-.04-1.19,0-.59-.05-1.15-.15-1.73l-4.82,1.33c.18.51.33,1.04.52,1.54.16.43.34.87.56,1.28s.53.79.84,1.15c.23.24.49.42.8.52.3.16.62.23.96.22.34.01.67-.06.96-.22.31-.1.58-.27.8-.52.44-.48.76-1.1.73-1.77l-.09-.66c-.12-.42-.33-.79-.64-1.1h0Z"/>
  <path d="M1758.88,176.55c-.9,4.8-1.04,9.67-1.5,14.53s-.79,9.46-.78,14.23-.17,9.77-.25,14.65.29,9.58.38,14.38c.05,2.69-.06,5.39-.02,8.08s-.28,5.39-.56,8.08c-.14,1.35,1.25,2.5,2.5,2.5,1.47,0,2.36-1.15,2.5-2.5.24-2.37.52-4.74.55-7.13s-.09-4.59-.01-6.89c.16-4.77-.41-9.55-.38-14.33s.24-9.45.27-14.17.02-9.52.5-14.27c.53-5.27.62-10.63,1.6-15.84.25-1.33-.37-2.7-1.75-3.08-1.22-.33-2.82.41-3.08,1.75h0Z"/>
  <path d="M1774.94,180.02c-1.18,4.58-1.99,9.25-2.63,13.93-.68,4.98-1.31,10-1.2,15.04s-.08,9.76.02,14.65c.05,2.43-.03,4.82-.16,7.25s.11,4.63-.07,6.94c-.1,1.27-.24,2.53-.25,3.8s.15,2.64.16,3.96c0,2.74.48,5.53.21,8.26-.14,1.35,1.25,2.5,2.5,2.5,1.46,0,2.36-1.15,2.5-2.5.24-2.37-.21-4.71-.21-7.09s-.23-4.61-.07-6.92.26-4.56.22-6.88.23-4.64.22-6.97c-.05-9.77-.44-19.58.78-29.29.65-5.16,1.51-10.31,2.81-15.35.8-3.12-4.02-4.45-4.82-1.33h0Z"/>
  <path d="M1782.13,180.82c-.18,5.11.22,10.21-.34,15.31s-1.15,10.28-1.65,15.43c-.23,2.39.26,4.75-.01,7.13-.13,1.11-.33,2.22-.42,3.33s.06,2.29.15,3.45c.18,2.39-.4,4.75-.68,7.12s.03,4.68-.11,7.04c-.08,1.31-.24,2.62-.32,3.93s.12,2.58.12,3.87-.43,2.4-.68,3.61c-.28,1.35-.47,2.73-.61,4.1s1.25,2.5,2.5,2.5c1.47,0,2.36-1.15,2.5-2.5.25-2.32,1.09-4.54,1.27-6.85.08-1-.04-1.99-.09-2.98-.07-1.29.06-2.57.18-3.85.21-2.37-.02-4.7.09-7.06s.73-4.76.87-7.17c.13-2.2-.31-4.31-.01-6.52.16-1.18.37-2.38.38-3.57s-.23-2.44-.23-3.67c.01-2.55.52-5.12.78-7.65s.51-5.12.78-7.68c.3-2.85.56-5.67.56-8.53s-.11-5.84,0-8.75c.11-3.22-4.89-3.21-5,0h0Z"/>
  <path d="M1637.86,249.55c4.93,1.35,10.03,1.82,15.1,2.25s9.62.96,14.39,2.06c5.1,1.17,10.11,2.64,15.31,3.29,4.89.62,9.77.95,14.62,1.85s9.97,2.04,15.01,2.71c2.53.34,5.07.58,7.62.71s4.92.02,7.36.27c4.88.51,9.71,1.87,14.48,2.94,5.05,1.13,10.11,2.01,15.29,1.88,5.48-.13,10.88-.15,16.34.37,2.53.24,4.59,1.98,7.13,2.35,2.69.39,5.43-.48,8.09.01,1.33.25,2.7-.37,3.08-1.75.33-1.22-.41-2.83-1.75-3.08-2.5-.46-4.88-.04-7.39-.04s-4.14-1.37-6.38-2.05-4.73-.62-7.01-.79c-2.45-.18-4.91-.19-7.36-.15s-5.07.21-7.6.12-4.93-.44-7.37-.92c-4.91-.95-9.75-2.23-14.66-3.17-2.46-.47-4.97-.86-7.48-.9s-5.09-.09-7.63-.31c-4.96-.42-9.82-1.36-14.69-2.32s-9.97-1.8-15.03-2.27c-2.43-.23-4.87-.44-7.27-.9-2.55-.49-5.06-1.17-7.58-1.79-5.53-1.36-11.03-2.4-16.71-2.91s-11.17-.82-16.59-2.31c-3.11-.85-4.43,3.97-1.33,4.82h0Z"/>
  <path d="M1754.92,254.08c-.45,1.13-.81,2.25-.97,3.46-.09.65-.13,1.28-.09,1.94.05.78.22,1.53.34,2.3l-.09-.66c.04.29.05.57.01.86l.09-.66c-.01.09-.03.18-.05.26-.29,1.27.39,2.77,1.75,3.08,1.27.29,2.77-.38,3.08-1.75.13-.59.2-1.18.13-1.78s-.2-1.17-.28-1.76l.09.66c-.09-.71-.09-1.43,0-2.14l-.09.66c.15-1.09.52-2.11.93-3.13.22-.56.04-1.43-.25-1.93s-.9-1.01-1.49-1.15c-.64-.15-1.36-.11-1.93.25s-.89.86-1.15,1.49h0Z"/>
  <path d="M1769.73,257.02c-.07,1.49.03,2.98.07,4.47.02.74.04,1.48.01,2.22-.01.38-.04.75-.07,1.13,0,.08-.02.16-.03.24-.02.2-.01.11.04-.27-.07.17-.07.43-.11.62-.25,1.28.36,2.76,1.75,3.08,1.24.28,2.81-.37,3.08-1.75.63-3.24.11-6.47.26-9.73.06-1.31-1.19-2.56-2.5-2.5-1.41.06-2.44,1.1-2.5,2.5h0Z"/>
  <path d="M1756.2,248.91c-.99,3.62-1.56,7.34-1.91,11.07-.12,1.31,1.24,2.56,2.5,2.5,1.46-.07,2.37-1.1,2.5-2.5.08-.85.17-1.71.28-2.56.02-.13.03-.26.05-.39-.05.34-.05.37-.01.09.03-.19.05-.38.08-.57.06-.41.13-.83.2-1.24.3-1.71.67-3.4,1.13-5.07.34-1.26-.43-2.78-1.75-3.08s-2.71.4-3.08,1.75h0Z"/>
  <path d="M1771.47,255.01c-.37.97-.7,1.95-.94,2.96-.28,1.19-.43,2.41-.51,3.62-.04.61.31,1.34.73,1.77s1.15.76,1.77.73,1.32-.24,1.77-.73.69-1.08.73-1.77c.03-.46.07-.91.13-1.37l-.09.66c.21-1.57.67-3.07,1.23-4.55.22-.57.05-1.42-.25-1.93s-.9-1.01-1.49-1.15c-.64-.15-1.36-.11-1.93.25s-.91.85-1.15,1.49h0Z"/>
  <path d="M1778.96,255.78c-.75,2.66-1.42,5.31-1.6,8.08-.09,1.31,1.21,2.56,2.5,2.5,1.43-.06,2.41-1.1,2.5-2.5.03-.51.08-1.02.15-1.53l-.09.66c.28-2,.82-3.94,1.36-5.88.36-1.26-.44-2.78-1.75-3.08s-2.7.4-3.08,1.75h0Z"/>
  <path d="M1686.59,248.52c.1,1.05.13,2.1.24,3.14.12,1.23.26,2.51.74,3.67.26.63.54,1.14,1.15,1.49.54.31,1.33.45,1.93.25s1.19-.57,1.49-1.15.5-1.32.25-1.93c-.3-.74-.46-1.52-.57-2.3l.09.66c-.17-1.28-.19-2.56-.32-3.84-.07-.68-.23-1.27-.73-1.77-.43-.43-1.15-.76-1.77-.73s-1.32.24-1.77.73c-.42.46-.8,1.12-.73,1.77h0Z"/>
  <path d="M1660.62,245.01c.08.38.14.76.19,1.14l-.09-.66c.15,1.14.18,2.29.1,3.43-.05.61.31,1.35.73,1.77s1.15.76,1.77.73,1.32-.24,1.77-.73l.39-.51c.23-.39.34-.81.34-1.26.13-1.75-.03-3.52-.38-5.24-.12-.59-.64-1.2-1.15-1.49-.54-.31-1.33-.45-1.93-.25s-1.19.57-1.49,1.15c-.33.62-.39,1.24-.25,1.93h0Z"/>
  <path d="M1785.02,272.42c-2.86,5.49-5.84,10.92-8.9,16.31s-6.07,10.27-8.83,15.56-6.54,9.44-9.23,14.53c-1.3,2.46-2.44,4.95-3.95,7.29-1.65,2.56-3.27,5.14-4.89,7.72-.87,1.4-1.77,2.76-2.71,4.12-.79,1.14-1.33,2.43-2.05,3.61-.55.91-1.11,1.81-1.69,2.7-.3.46-.59.93-.93,1.36.12-.16-.23.27-.25.29-.1.11-.72.64-.25.31l3.67,1.49-.09-.55c-.22-1.33-1.87-2.08-3.08-1.75-1.42.39-1.97,1.74-1.75,3.08l.09.55c.25,1.52,2.44,2.37,3.67,1.49,1.76-1.25,2.9-3.19,4.01-5,1.27-2.06,2.38-4.17,3.74-6.17,1.66-2.44,3.17-5,4.75-7.49s3.22-4.92,4.53-7.57,2.76-5.21,4.42-7.7,3.54-4.9,5.05-7.51c1.39-2.39,2.54-4.9,3.94-7.28,1.57-2.66,3.14-5.33,4.68-8.01,3.57-6.22,7.04-12.5,10.35-18.85,1.49-2.85-2.83-5.38-4.32-2.52h0Z"/>
  <path d="M1791.08,274.5c.03-.08.06-.15.09-.23l-.25.6c.36-.83.79-1.62,1.16-2.45.51-1.13,1.03-2.31,1.02-3.57,0-1.1-.78-2.11-1.84-2.41l-.65-.18c-.62-.18-1.37-.07-1.93.25-.52.3-1.01.9-1.15,1.49-.15.64-.11,1.36.25,1.93s.85.97,1.49,1.15l.65.18-1.84-2.41c0,.12,0,.24-.03.35l.09-.66c-.08.55-.29,1.08-.5,1.59l.25-.6c-.52,1.23-1.18,2.39-1.66,3.63-.22.57-.05,1.42.25,1.93s.9,1.01,1.49,1.15c.64.15,1.36.11,1.93-.25l.51-.39c.31-.31.52-.68.64-1.1h0Z"/>
  <path d="M1633.07,248.56c-5.62,7.38-10.78,15.11-16.48,22.43-2.77,3.56-5.78,6.92-8.83,10.24-1.4,1.52-2.88,2.99-4.19,4.59s-2.29,3.45-3.6,5.08-2.42,3.25-3.43,5.06c-.7,1.25-1.55,2.9-2.84,3.28-3.08.91-1.77,5.74,1.33,4.82,3.73-1.11,5.11-4.63,7-7.64,1.12-1.78,2.64-3.26,3.74-5.05s2.38-3.2,3.78-4.71c3.17-3.42,6.33-6.86,9.27-10.48,3.09-3.81,5.97-7.79,8.84-11.76,3.22-4.47,6.4-8.96,9.74-13.34.82-1.08.17-2.8-.9-3.42-1.28-.75-2.6-.18-3.42.9h0Z"/>
  <path d="M1593.92,298.3c-2.27,3.39-4.6,6.79-6.33,10.5-.36.77-.74,1.83-1.01,2.43-.32.69-.76,1.13-1.23,1.72-.54.67-1.15,1.53-1.6,2.08-.24.3-.49.59-.76.87-.16.17-.33.33-.5.48-.35.31.42-.27-.23.18-1.12.76-1.61,2.2-.9,3.42.65,1.11,2.3,1.66,3.42.9,1.7-1.15,2.81-2.73,4.05-4.33.37-.48,1.16-1.32,1.63-2.01.59-.89.88-1.93,1.3-2.91,1.62-3.79,4.16-7.35,6.47-10.8.75-1.12.22-2.77-.9-3.42-1.23-.72-2.67-.23-3.42.9h0Z"/>
  <path d="M1584.44,321.85c5,2.3,10.24,3.79,15.58,5.06s10.34,2.51,15.45,4.1c2.5.78,5.02,1.52,7.57,2.11s5.15.9,7.73,1.35c5.45.96,10.73,2.65,16.25,3.24s11.02.4,16.52.79,10.63,1.71,15.9,2.86,10.68,2.19,16.12,2.65c4.83.42,9.71.5,14.5,1.29,2.61.43,5.21,1.05,7.66,2.05s4.57,2.47,6.96,3.5c2.62,1.14,5.39,2.14,8.27,2.24,1.52.05,3.06-.14,4.56-.33,1.03-.13,2.33-.58,3.35-.36,3.14.69,4.48-4.13,1.33-4.82-2.36-.52-4.77.24-7.13.44-2.52.21-4.74-.29-7.09-1.18-2.12-.81-4.01-2-6.03-3.03-2.18-1.11-4.5-1.96-6.87-2.57-4.86-1.24-9.9-1.57-14.89-1.9s-10.04-.89-15.02-1.89c-5.42-1.09-10.8-2.53-16.27-3.37s-10.8-.79-16.23-1.01c-2.68-.11-5.38-.26-8.03-.71s-5.34-1.18-8-1.79c-5.09-1.17-10.27-1.69-15.31-3.07-2.87-.79-5.68-1.74-8.53-2.58s-5.83-1.54-8.76-2.23c-5.79-1.35-11.65-2.69-17.08-5.19-1.23-.56-2.69-.35-3.42.9-.63,1.08-.34,2.85.9,3.42h0Z"/>
  <path d="M1580.26,326.2c.33,2.45.19,5.04,1.09,7.38s2.59,4.28,4.74,5.38,4.63,1.13,7,1.39c2.84.31,5.66.74,8.45,1.33,5.65,1.19,11.02,3.27,16.56,4.85s11.28.5,16.93,1.19c1.27.15,2.55.34,3.84.33,1.45-.02,2.88-.32,4.33-.31,1.22,0,2.35.36,3.51.71,1.46.44,2.9.73,4.42.91,5.78.68,11.6,1.13,17.4,1.74s11.46,1.77,17.06,3.15,10.81,3.37,16.47,4.1c3.27.43,6.56.7,9.86.7s6.59-.43,9.9-.24c3.04.18,5.92.6,8.69,1.93,2.43,1.17,4.66,3.44,7.4,3.82,1.96.27,3.44-1.05,3.08-3.08-.57-3.17-.47-6.34-.16-9.54.13-1.35-1.25-2.5-2.5-2.5-1.46,0-2.37,1.15-2.5,2.5-.37,3.67-.31,7.23.33,10.87l3.08-3.08c-1.07-.15-1.88-.7-2.76-1.3-.99-.67-1.97-1.29-3.04-1.82-2.58-1.28-5.15-2.13-8-2.47s-5.77-.51-8.67-.3-5.62.25-8.44.1c-5.57-.3-10.77-1.45-16.09-3.03s-10.88-2.86-16.43-3.81-11.39-1.43-17.1-2.02c-2.74-.28-5.58-.34-8.29-.85s-4.96-1.59-7.66-1.49c-1.37.05-2.73.31-4.1.31s-2.71-.23-4.05-.39c-2.72-.32-5.41-.14-8.15-.15s-5.3-.29-7.92-1.08-5.25-1.69-7.88-2.51c-6.12-1.9-12.36-3.06-18.73-3.69-2.25-.22-3.7-.39-5.14-2.11-1.53-1.84-1.2-4.68-1.49-6.91-.18-1.34-1.02-2.5-2.5-2.5-1.21,0-2.68,1.15-2.5,2.5h0Z"/>
  <path d="M1585.42,324.7c.26-2.5.51-4.99.77-7.49.06-.6-.32-1.36-.73-1.77-.43-.43-1.15-.76-1.77-.73s-1.32.24-1.77.73c-.47.52-.66,1.07-.73,1.77-.26,2.5-.51,4.99-.77,7.49-.06.6.32,1.36.73,1.77.43.43,1.15.76,1.77.73s1.32-.24,1.77-.73c.47-.52.66-1.07.73-1.77h0Z"/>
  <path d="M1744.78,359.49c4.94-5.75,10.04-11.38,14.48-17.54,4.27-5.93,9.04-11.51,12.88-17.73,2.1-3.39,4.14-6.82,6.21-10.23,1.9-3.14,3.37-6.49,4.85-9.84s3.25-6.64,5.12-9.86c.94-1.61,1.74-3.23,2.39-4.99.58-1.58,1.05-3.22,1.82-4.72.98-1.91,2.11-3.73,3.06-5.66.64-1.31,1.5-2.4,2.26-3.63.92-1.5,1.78-3.87.32-5.33s-4.31-1.13-6.21-1.3c-1.35-.12-2.5,1.24-2.5,2.5,0,1.46,1.15,2.38,2.5,2.5s2.55.03,3.77.48l-1.75-1.75c-.02-.11-.12-.34,0-.44-.17.14-.33.63-.45.82-.29.47-.62.91-.94,1.36-.78,1.11-1.33,2.31-1.95,3.51-.77,1.5-1.67,2.92-2.44,4.42s-1.33,3.1-1.89,4.68c-1.09,3.11-2.82,5.79-4.4,8.66s-2.95,6.07-4.34,9.16c-2.82,6.29-6.64,12.12-10.27,17.96s-7.91,10.57-11.71,15.98c-4.34,6.18-9.45,11.75-14.37,17.47-.88,1.02-1.01,2.53,0,3.54.9.9,2.65,1.03,3.54,0h0Z"/>
  <path d="M1601.23,343.21c-.58,5.44-.8,10.91-1.2,16.37s-.94,10.62-1.25,15.95-.4,10.9-.64,16.36-.93,10.77-1.5,16.16c-1.15,10.85-.74,21.77-1.29,32.65-.27,5.49-.53,10.99-.82,16.48s-.33,10.84-.91,16.2c-.31,2.89-.39,5.89-.87,8.75-.21,1.29-1,2.31-.89,3.67s.92,2.39,2.06,3.13c2.39,1.57,5.13,1.97,7.85,2.6,1.22.28,2.49.63,3.65,1.1,1.25.52,2.38,1.34,3.81,1.18,1.18-.13,2.01-.7,2.41-1.84.74-2.08.13-4.23-.27-6.31-.43-2.27-.43-4.67-.47-6.97-.08-4.98-.15-9.96-.29-14.95-.26-10.01-.39-20,0-30s1.35-19.56,2.2-29.34c.41-4.72.83-9.45,1.59-14.13.4-2.46,1.01-4.86,1.5-7.3s.73-4.66,1.07-7c.4-2.72.95-5.41,1.29-8.14s.5-5.42.76-8.13.55-5.41.83-8.12c.12-1.15.34-2.29.48-3.44.06-.49.09-.97.05-1.46-.03-.32-.08-.7-.16-1.02-.06-.22-.14-1.04-.26-.38.24-1.33-.36-2.69-1.75-3.08-1.21-.33-2.83.41-3.08,1.75-.21,1.16.08,1.95.26,3.06.12.75-.18,1.63-.29,2.37-.37,2.47-.54,4.98-.79,7.46-.49,4.78-.73,9.6-1.6,14.34s-1.38,9.35-2.4,13.99-1.62,9.76-2.09,14.68c-.94,9.73-1.93,19.48-2.41,29.25-.49,9.97-.55,19.94-.31,29.92.13,5.6.34,11.19.38,16.79.02,2.72.03,5.44.28,8.15.12,1.28.29,2.54.55,3.79.2.98.45,1.94.11,2.9l2.41-1.84c-.61.07-1.53-.62-2.16-.87-1.15-.45-2.35-.84-3.55-1.14-2.19-.55-4.53-.73-6.52-1.87-1.34-.76.25.46-.17.56.17-.04.53-1.16.52-1.13.4-1.17.42-2.46.52-3.68.22-2.61.52-5.21.8-7.81.56-5.28.59-10.66.87-15.96s.52-10.5.79-15.75c.52-10.47.13-20.99,1.14-31.43.5-5.22,1.26-10.42,1.56-15.67s.33-10.45.59-15.67c.29-5.81.82-11.58,1.3-17.38s.69-11.91,1.32-17.84c.14-1.34-1.25-2.5-2.5-2.5-1.47,0-2.36,1.15-2.5,2.5h0Z"/>
  <path d="M1614.29,491.87c1.56-1.56,3.04-3.32,4.95-4.47s3.66-2.34,3.62-4.86c-.02-1.07-.37-2.07-.58-3.1-.25-1.17-.28-2.4-.33-3.6-.1-2.62,0-5.25-.18-7.87-.33-5.02.11-10.01.09-15.03s.03-10.25.11-15.38-.33-10.36-.14-15.54c.19-5.1.26-10.26.69-15.35.2-2.34.65-4.63,1.1-6.94s.49-4.81.96-7.18c.97-4.94,2.4-9.79,3.4-14.72.55-2.72,1.3-5.4,1.82-8.12s.88-5.45,1.35-8.17.81-5.39,1.36-8.07,1.13-5.6,1.48-8.45c.16-1.34-1.26-2.5-2.5-2.5-1.48,0-2.34,1.15-2.5,2.5-.56,4.71-1.78,9.33-2.47,14.03s-1.58,9.49-2.68,14.17-2.02,9.54-3.18,14.28c-.61,2.46-1.14,4.87-1.4,7.39-.25,2.35-.73,4.63-1.12,6.96-.82,4.89-.83,9.83-1.07,14.77s-.34,10.15-.18,15.26-.11,10.07-.09,15.11-.11,10.1-.2,15.16c-.05,2.77.21,5.52.27,8.29s-.03,5.58.3,8.35c.14,1.22.39,2.38.69,3.58.15.6-.05.09.02.07-.44.14-.95.52-1.35.77-2.2,1.39-3.95,3.31-5.78,5.13-2.28,2.28,1.26,5.81,3.54,3.54h0Z"/>
  <path d="M1650.15,350.8c.44,6.01-.13,12.05-.03,18.07.05,3.05-.02,6.1.05,9.15.06,2.88.45,5.75.44,8.63s-.3,6.01-.15,9.01.24,5.87.29,8.81c.11,6.09.36,12.17.36,18.26,0,3.38.22,6.8-.05,10.17-.12,1.52.19,3.01.1,4.52s-.62,2.97-.43,4.51c.13,1.11.69,2.1,1.84,2.41.88.24,1.85.28,2.62.77,1.02.64,2.06,1.34,3.02,2.07.8.61,1.4,1.42,2.18,2.05,1.12.92,2.46,1.61,3.7,2.34,2.77,1.65,5.29-2.67,2.52-4.32-1.07-.63-2.37-1.22-3.27-2.08-.96-.92-1.86-1.79-2.96-2.57-.97-.69-1.96-1.46-3.01-2.02-1.11-.59-2.29-.76-3.48-1.08l1.84,2.41c-.15-1.26.2-2.46.35-3.71.18-1.49-.13-2.93-.08-4.42.05-1.31.21-2.59.18-3.9-.03-1.57-.05-3.13-.06-4.7-.03-6.1-.14-12.19-.32-18.29s-.47-11.94-.25-17.9c.11-2.98-.17-5.88-.31-8.85s-.09-5.92-.1-8.89c0-3.42-.04-6.82.07-10.24s.19-6.84-.06-10.25c-.1-1.35-1.08-2.5-2.5-2.5-1.28,0-2.6,1.15-2.5,2.5h0Z"/>
  <path d="M1669.53,448.26c1.25-.64,2.48-1.48,3.85-1.81,1.75-.43,3.32-1.11,3.84-3.03.39-1.46-.18-2.97-.32-4.42-.17-1.77-.2-3.55-.18-5.32.08-7.36.21-14.73.36-22.09s1.31-14.69,2.05-22.01c.38-3.78.79-7.57,1.16-11.35s.45-7.24.66-10.85c.12-2.04-.16-4.07,0-6.11.07-.93.2-1.85.31-2.78.06-.46.1-.92.16-1.38-.08.63.04-.23.05-.28.48-2.78,2.03-7.77-1.72-8.84-3.1-.88-4.42,3.94-1.33,4.82l.42.12-1.75-1.75c.2.64.02-.51.07.28.01.19,0,.39,0,.58-.02.49-.07.96-.15,1.44-.19,1.14-.43,2.27-.57,3.42-.19,1.52-.41,3.06-.51,4.59-.11,1.63.15,3.26.08,4.89-.28,6.94-.93,13.82-1.63,20.73s-1.66,13.69-2.12,20.56-.29,13.91-.43,20.85c-.08,3.81-.3,7.65.18,11.45,0,0,.22,2.14.35,2.15.03,0,.7-.74.71-.73-.08-.07-1.18.27-1.33.31-1.66.48-3.19,1.46-4.73,2.24-2.87,1.46-.34,5.77,2.52,4.32h0Z"/>
  <path d="M1664.6,351.25c-.42,6.71-.8,13.42-1.03,20.14s-.17,13.13-.32,19.7-.4,13.5-.35,20.25c.05,6.55.54,13.08.58,19.63.02,3.45.23,6.94.1,10.38-.08,2.32-.43,5.05,1.32,6.88,2.23,2.33,5.76-1.21,3.54-3.54.29.31.06.51.15.18,0-.03-.1-.47-.05-.12-.08-.48-.06-.99-.05-1.48.01-.84.1-1.68.1-2.53,0-3.18-.1-6.36-.11-9.54-.03-6.47-.51-12.92-.57-19.38s.15-12.84.31-19.26.11-12.98.3-19.46c.21-7.29.63-14.58,1.08-21.86.2-3.21-4.8-3.2-5,0h0Z"/>
  <path d="M1758.14,342.69c-.39,3.74-1.01,7.48-.91,11.25.09,3.58.62,7.14.26,10.72-.17,1.71-.48,3.41-.47,5.14s.08,3.53-.07,5.31c-.31,3.6-.79,7.18-1.29,10.75-1.04,7.32-1.87,14.65-2.63,22-.36,3.47-.61,6.98-1.1,10.44s-1.15,7.05-1.56,10.61c-.23,2.02-.46,3.92-.35,5.96.05.92.07,1.81-.02,2.73.07-.72-.01.03-.04.15-.05.26-.09.51-.14.77-.48,2.62-1.28,5.91.68,8.12,2.14,2.41,5.66-1.13,3.54-3.54l.18.23c.12.3.13.31.05.02l.02.2c-.02-.17-.02-.35-.02-.52,0-.49.03-.98.09-1.46.09-.69.33-1.83.47-2.71.25-1.49.25-2.92.16-4.43-.09-1.72.12-3.35.33-5.05.41-3.42,1.03-6.8,1.5-10.2s.77-7.04,1.13-10.56c.72-6.99,1.46-13.96,2.46-20.92.52-3.61,1.02-7.22,1.38-10.85.34-3.43.06-6.86.48-10.27.48-3.93.18-7.69,0-11.62s.45-8.15.87-12.24c.14-1.34-1.25-2.5-2.5-2.5-1.47,0-2.36,1.15-2.5,2.5h0Z"/>
  <path d="M1753.42,448.47c.94,1.15,1.9,2.28,2.81,3.45l-.39-.51c.75.97,1.5,1.95,2.08,3.03.29.54.64,1.09,1.08,1.53.73.73,1.62,1.07,2.63,1.14,1.31.09,2.56-1.22,2.5-2.5-.06-1.43-1.1-2.4-2.5-2.5h-.09c.22.02.44.05.66.08-.12-.02-.23-.05-.34-.09l.6.25c-.11-.05-.2-.11-.3-.19l.51.39c-.12-.1-.22-.21-.31-.33l.39.51c-.32-.42-.53-.91-.81-1.36-.44-.72-.95-1.4-1.46-2.07-1.13-1.49-2.33-2.93-3.51-4.37-.38-.47-1.19-.73-1.77-.73-.61,0-1.35.27-1.77.73s-.76,1.1-.73,1.77c.03.7.29,1.23.73,1.77h0Z"/>
  <path d="M1764.62,335.07c-.82,7.88-1.42,15.83-.47,23.73.45,3.74.47,7.44.62,11.19s.4,7.71.26,11.6.32,7.68.28,11.54-.67,7.56-1.13,11.33-.41,7.63-.61,11.47-.62,7.79-1.06,11.67c-1.03,9.01-1.94,18.03-2.86,27.05-.14,1.35,1.25,2.5,2.5,2.5,1.47,0,2.36-1.15,2.5-2.5.82-8.05,1.59-16.1,2.52-24.14.45-3.88.92-7.77,1.21-11.67s.16-7.72.5-11.56,1.03-7.53,1.31-11.32-.18-7.61-.22-11.44.21-7.77-.04-11.67-.13-7.51-.46-11.26c-.38-4.35-.87-8.6-.8-12.98s.48-9.05.95-13.55c.14-1.34-1.25-2.5-2.5-2.5-1.47,0-2.36,1.15-2.5,2.5h0Z"/>
  <path d="M1767.29,453.67c1.7-1.4,3.73-2.33,5.52-3.61s3.93-2.42,3.85-4.86c-.03-.92-.4-1.79-.44-2.72-.05-1.22.04-2.45.19-3.66.28-2.33.67-4.64.91-6.97.51-5.01,1.25-10.05,1.4-15.08.07-2.55.16-5.07.41-7.61s.22-4.96.36-7.44c.3-5.09,1.05-10.15,1.31-15.24s.02-10.1-.53-15.14c-.28-2.54.16-5.02.41-7.54s.02-5.09-.45-7.59c-.43-2.32-.95-4.58-1.16-6.94-.23-2.54-.2-4.95.05-7.49.13-1.37.19-2.71.19-4.09,0-1.45.17-2.82-.03-4.27-.39-2.79-.32-5.5-.35-8.31-.01-1.31-.25-2.36.13-3.64.25-.84.48-1.66.79-2.48.84-2.21.66-4.53-1.82-5.48-1.26-.48-2.74.53-3.08,1.75-.39,1.41.48,2.59,1.75,3.08l.18.07-1.1-.64-.42-1.15v.22c-.05.04.2-.7-.07.07-.1.3-.2.6-.32.89-.24.64-.42,1.27-.61,1.93-.33,1.13-.66,2.24-.59,3.43s.13,2.42.12,3.65c-.02,2.47.14,4.83.46,7.27.14,1.07-.04,2.1-.06,3.16-.02,1.28,0,2.54-.11,3.82-.21,2.39-.39,4.68-.21,7.08s.42,4.66.9,6.94.91,4.35.91,6.63c0,2.49-.57,4.94-.62,7.43s.43,4.76.58,7.12.21,4.75.17,7.13c-.08,4.86-.7,9.66-1.12,14.49-.21,2.4-.37,4.8-.43,7.2s-.34,4.77-.51,7.16-.07,4.89-.26,7.33-.5,4.81-.74,7.22c-.26,2.56-.45,5.14-.81,7.7s-.85,5.03-.81,7.57c0,.35.22,3.59.48,3.56.23-.02.1-1.19.34-1.12-.07-.02-.5.34-.58.39-.46.31-.89.66-1.34.97-2.1,1.47-4.36,2.63-6.35,4.27-1.04.86-.89,2.65,0,3.54,1.03,1.03,2.49.86,3.54,0h0Z"/>
  <path d="M1727.64,359.5c-1.79,3.86-1.78,8.41-2,12.6-.12,2.37.02,4.74-.21,7.1s-.57,4.56-.78,6.85-.19,4.63-.35,6.95-.41,4.7-.34,7.05c.13,4.73.27,9.42.16,14.16-.23,9.61.27,19.19.13,28.8-.14,9.5-1.59,18.91-2.55,28.34-.53,5.22-1.06,10.44-1.65,15.66-.28,2.51-.11,5.09.19,7.59.23,1.94-.95,4.11.49,5.98.82,1.07,2.15,1.64,3.42.9,1.05-.61,1.73-2.34.9-3.42-.27-.36-.05-.28-.1.13,0,0,0-.34,0-.33.1-.31.13-.68.19-1,.19-1.11.12-2.05-.02-3.15-.25-2.11-.33-4.36-.1-6.47.49-4.49.97-8.97,1.43-13.46.94-9.17,2.34-18.35,2.72-27.57s-.33-18.56-.14-27.84c.1-4.64.28-9.29.15-13.93-.07-2.27-.28-4.54-.18-6.81s.36-4.54.44-6.82c.18-5.11,1.12-10.17,1.16-15.28.02-2.41.21-4.77.35-7.17.12-2.1.13-4.38,1.03-6.33.57-1.22.35-2.69-.9-3.42-1.08-.63-2.85-.33-3.42.9h0Z"/>
  <path d="M1718.8,499.46c-1.94,1.45-3.97,2.79-5.77,4.41-.72.64-1.35,1.36-2.04,2.03-.15.15-.32.29-.48.43-.37.32.35-.23.11-.09-.1.06-.19.13-.29.19-.09.05-.47.22-.06.05s0-.03-.07,0c-.32.11.23-.03.29-.04-.43.05.6.13.17.03-1.27-.32-2.77.41-3.08,1.75s.39,2.73,1.75,3.08c1.69.43,3.18-.21,4.49-1.24.77-.6,1.39-1.35,2.09-2.03.42-.41.87-.81,1.32-1.19.25-.21.5-.41.75-.6.37-.29-.27.2-.02.02.12-.09.23-.18.35-.26,1-.75,2.02-1.46,3.02-2.21.54-.4.96-.82,1.15-1.49.16-.6.09-1.4-.25-1.93-.67-1.03-2.3-1.73-3.42-.9h0Z"/>
  <path d="M1694.48,509.76c4.74,1.54,9.59,2.64,14.48,3.59,1.06.2,2.28-.12,2.82-1.15.49-.93.47-2.29-.39-3.03l.44,1.18c-.11-1.3-1.07-2.56-2.5-2.5-1.26.06-2.62,1.1-2.5,2.5.07.9.31,1.74,1.02,2.35l2.43-4.18c-4.89-.94-9.74-2.05-14.48-3.59-1.24-.4-2.78.47-3.08,1.75-.31,1.37.41,2.64,1.75,3.08h0Z"/>
  <path d="M1698.58,503.31c-.66-9.75.9-19.43,1.41-29.14.5-9.62,1.35-19.22,2.51-28.77.58-4.75,1.21-9.49,1.56-14.26.35-4.75.23-9.44,1.02-14.15,1.58-9.37,1.5-19.01,3.63-28.27.61-2.65.61-5.2.79-7.88s.66-5.12.84-7.7c.09-1.35-.05-2.69-.06-4.04s.18-2.62.35-3.93c.32-2.49.64-4.92,1.26-7.36.8-3.12-4.02-4.45-4.82-1.33-.58,2.25-.96,4.54-1.23,6.85s-.61,4.61-.52,6.96-.18,4.67-.47,7.05-.3,4.62-.43,6.96c-.12,2.17-.86,4.28-1.26,6.41-.45,2.37-.64,4.79-.87,7.19-.44,4.81-.79,9.69-1.48,14.48-.35,2.43-.83,4.83-1.14,7.27s-.28,4.77-.36,7.17c-.16,4.85-.71,9.69-1.29,14.5-1.18,9.64-2.22,19.29-2.81,28.99-.33,5.51-.74,11-1.21,16.51s-.78,11.01-.41,16.53c.09,1.35,1.08,2.5,2.5,2.5,1.28,0,2.59-1.15,2.5-2.5h0Z"/>
  <path d="M1717.46,360.79c-.26,2.49-.29,4.99-.38,7.49s-.43,4.92-.53,7.39c-.19,4.82.31,9.64.09,14.47s-.78,9.83-.96,14.76-.71,10-.67,15.02-.39,9.97-.74,14.97c-.35,5.03-.76,10.02-1.28,15.04s-1.08,9.87-1.37,14.82-.02,10.13-.31,15.19c-.31,5.56-.97,11.1-1.54,16.64-.27,2.63-.79,5.3-.68,7.94.09,2.12-.28,4.08,1.22,5.83.88,1.03,2.63.9,3.54,0,1.02-1.02.88-2.51,0-3.54.73.85.15.49.21.21,0,.01.04.83,0-.24-.01-.38,0-.75.02-1.13.03-.86-.06-1.72-.03-2.58.1-2.32.52-4.67.76-6.98.51-4.97,1.09-9.94,1.41-14.92s.08-9.8.29-14.71.75-9.73,1.26-14.58,1.09-9.66,1.33-14.52.88-9.96.9-14.97c0-2.45-.08-4.91.04-7.36s.42-4.83.52-7.25c.19-4.84.56-9.65.88-14.48.18-2.75.31-5.5.27-8.26s-.25-5.32-.22-7.99.4-5.18.52-7.79c.13-2.82.12-5.64.41-8.45.14-1.34-1.25-2.5-2.5-2.5-1.47,0-2.36,1.15-2.5,2.5h0Z"/>
  <path d="M273.92,101.51c-1.54,6.05-2.96,12.24-3.03,18.51-.03,3.2.3,6.5,1.28,9.55.8,2.5,1.95,5.02,4.04,6.7,3.96,3.18,9.3,2.77,13.99,1.86s9.44-2.62,14.43-2.73c3.56-.08,7.11.24,10.67.31,3.81.07,7.51-.27,11.18-1.27,7.1-1.93,14.48-1.48,21.75-1.43,7.76.06,15.53.04,23.29,0,3.47-.02,7.17-.41,10.6.19,1.52.27,3.01.71,4.5,1.14,1.81.52,3.64.91,5.46,1.37,3.88,1,7.61,2.54,11.54,3.34.7.14,1.44.31,1.93.57.74.4,1.4.94,2.12,1.36,1.53.89,3.06,1.14,4.8.77,3.12-.66,5.95-3.01,7.75-5.56,2.27-3.24,1.65-7.12,1.64-10.83,0-3.22-5.01-3.22-5,0,0,2.7.78,5.98-.96,8.31-1.08,1.45-3.27,3.25-4.99,3.28-.6,0-.27-.02-.17,0,.21.05-.57-.29-.55-.28-.52-.31-1.02-.67-1.53-.99-1.44-.93-2.93-1.28-4.59-1.61-3.25-.65-6.37-2-9.56-2.88s-6.27-1.68-9.41-2.45c-3.37-.83-6.77-.77-10.22-.75-7.41.05-14.82.03-22.24.03-6.93,0-13.95-.48-20.85.35-1.77.21-3.54.49-5.28.9s-3.3.93-5,1.17c-3.36.49-6.8.28-10.18.13s-6.94-.33-10.4.08c-2.23.27-4.38.78-6.55,1.34s-4.26,1.1-6.43,1.48c-1.59.27-4.17.46-5.55.21-2.13-.39-3.39-1.11-4.4-2.95-1.44-2.62-1.98-5.76-2.11-8.72-.29-6.51,1.22-12.92,2.82-19.18.8-3.12-4.02-4.45-4.82-1.33h0Z"/>
  <path d="M286.02,100.72c10.6-1.71,21.34-2.22,32-3.45,2.62-.3,5.26-.58,7.83-1.14,2.34-.51,4.63-1.2,6.93-1.85s4.5-1.26,6.8-1.55c2.42-.31,4.77-.09,7.18.18,5.06.56,10.15,1.03,15.15,2.03s9.62,2.62,14.61,3.13c4.58.47,9.6-.84,14.01.8,2.3.85,4.51,2.11,6.74,3.13,2.5,1.14,5,2.27,7.47,3.47,2.13,1.04,4.28,1.6,6.58,2.1,2.02.44,3.91.98,5.32,2.59,3.31,3.79,2.8,9.25,2.8,13.92,0,3.22,5,3.22,5,0,0-4.81.18-9.7-2-14.13-1.07-2.17-2.71-4.15-4.8-5.4-1.84-1.11-3.94-1.56-6.02-2.01-2.22-.48-4.08-1.26-6.12-2.23-2.47-1.17-4.98-2.28-7.46-3.42s-4.81-2.56-7.39-3.19-5.14-.63-7.71-.55c-2.43.08-4.85.17-7.27-.17s-4.98-1.04-7.43-1.67c-5.23-1.35-10.51-2.17-15.87-2.78-2.63-.3-5.26-.63-7.9-.87s-5.08.02-7.57.48c-4.91.91-9.57,2.81-14.51,3.58-6.12.96-12.34,1.37-18.5,1.93s-12.82,1.23-19.19,2.25c-1.33.21-2.08,1.88-1.75,3.08.39,1.42,1.74,1.96,3.08,1.75h0Z"/>
  <path d="M284.04,96.6c4.68-2.33,9.08-5.21,13.82-7.43s10.14-3.23,15.5-3.6c5.67-.39,11.36.14,16.96-.98,2.67-.53,5.3-1.29,8-1.66s5.49-.25,8.2-.1c2.87.16,5.74.48,8.58.95s5.68,1.2,8.58,1.36c5.4.31,10.72-.63,15.9,1.35s10.24,4.71,15.48,6.77c1.29.51,2.52.87,3.92.99s2.9-.04,4.36,0c2.39.06,4.44,1.21,6.68,1.9s4.94.72,6.54,2.23c1.27,1.19,1.88,2.69,2.31,4.46.95,3.88.58,8.14.57,12.21,0,3.22,4.99,3.22,5,0,.02-7.23,1.11-18.26-6.89-21.99-2.33-1.09-4.94-1.24-7.33-2.14-2.6-.97-4.97-1.72-7.78-1.68-1.2.02-2.45.16-3.64-.03-1.42-.23-2.83-.94-4.15-1.5-2.77-1.18-5.48-2.5-8.23-3.74s-5.53-2.6-8.45-3.24-5.67-.64-8.52-.59c-2.69.05-5.48.22-8.14-.28-3.02-.56-6.03-1.14-9.08-1.53-6.02-.76-12.09-.98-18.06.28-2.66.56-5.32,1.33-8.03,1.6-3,.3-6.07.08-9.08.17-6.41.19-13.02.82-19,3.28s-10.97,5.84-16.54,8.62c-2.88,1.44-.35,5.75,2.52,4.32h0Z"/>
  <path d="M428.39,112.4c6.72,0,13.46.42,20.16-.21,3.38-.32,6.7-1.01,10.04-1.61s6.43-.86,9.72-.84,6.71.23,10.06-.03,6.61-.81,9.91-1.25c6.51-.88,13.03-1.84,19.59-2.31,3.14-.23,6.39-.48,9.52-.05s6.35,1.22,9.63,1.19,6.19-.13,9.33.47,5.92,1.06,8.99.61c1.55-.22,3.07-.59,4.61-.87s3.1-.32,4.66-.35c3.37-.05,6.74.05,10.11.08s6.67-.13,10.01-.2c1.58-.03,3.17-.04,4.75.03,1.35.05,2.63.08,3.85.7,1.15.59,2.26,1.25,3.5,1.64s2.55.35,3.84.39c.46.01.88,0,1.24.14.21.08.17.05.32.24.32.4.36,1.45.34,2.3-.11,4.57-2.31,9.36-4.72,13.17-1.41,2.22-3.39,3.54-5.65,4.8-2.48,1.38-4.75,2.85-6.91,4.7s-4.57,2.45-7.12,3.41c-3.13,1.18-6.35,1.63-9.65,2.1s-6.58,1.12-9.87,1.66-6.3.73-9.43,1.23-5.9,1.48-8.91,2.03c-1.41.26-2.86.36-4.26.65-1.5.31-2.93.99-4.45,1.2-1.28.17-2.63-.17-3.88-.43-1.67-.34-3.32-.78-4.96-1.22-3.16-.85-6.39-1.96-9.68-2.02s-6.63.84-9.83,1.68-6.46,1.53-9.72,2.18c-6.33,1.27-12.73,2.24-19.19,2.37s-12.29-.85-18.42-2.1c-4.92-1-9.75-2.82-12.73-7.13-.79-1.14-1.05-2.01-1.01-3.38.04-1.46-.16-2.74-.8-4.04-.91-1.86-2.3-3.6-3.79-5.04s-3.43-2.87-5.65-2.89c-3.22-.02-3.22,4.98,0,5,.63,0-.48-.17.17.03s-.22-.14.18.07c.31.16.86.52.98.62.88.7,1.69,1.58,2.38,2.47.44.57.93,1.36,1.32,2.07.06.11.28.76.1.17.06.19.13.35.16.56.09.73-.08,1.51-.04,2.25.18,3.3,2.54,6.12,4.88,8.25,2.1,1.9,4.46,3.33,7.11,4.34,2.4.92,4.94,1.39,7.45,1.88,3.22.62,6.41,1.27,9.68,1.6,6.87.68,13.78.15,20.59-.86s13.39-2.53,20-4.19c3.1-.77,6.06-1.22,9.2-.47,3.31.78,6.55,1.82,9.88,2.53,1.51.33,3.11.67,4.66.73s3.22-.39,4.76-.85c2.91-.88,5.97-1.04,8.92-1.77,3.18-.79,6.27-1.51,9.53-1.89s6.58-.91,9.87-1.5c3.47-.63,6.98-1.03,10.45-1.61,3.24-.55,6.16-1.83,9.25-2.87,1.35-.45,2.58-1.03,3.71-1.88s2.21-1.91,3.39-2.77c2.12-1.56,4.57-2.58,6.75-4.05,4.77-3.24,7.58-9,9.22-14.4,1.23-4.07,2.57-11.15-2.33-13.39-2.23-1.02-4.71-.24-6.73-1.2-1.26-.6-2.41-1.37-3.78-1.75-1.61-.45-3.42-.44-5.09-.48-3.33-.08-6.67.1-10,.18-3.58.08-7.15-.04-10.73-.07s-6.72.03-10.06.7c-1.39.28-2.78.65-4.2.73-1.51.08-2.98-.08-4.47-.36-3.26-.61-6.39-1.07-9.72-.98-1.56.04-3.13.11-4.69,0s-3.12-.47-4.67-.74c-6.69-1.16-13.56-.34-20.26.47-6.81.82-13.6,2.03-20.43,2.67-3.52.33-7.02.15-10.54.11s-6.76.21-10.12.77-6.55,1.33-9.88,1.65-6.87.39-10.31.36-6.72-.12-10.08-.13-3.22,5,0,5h0Z"/>
  <path d="M430.54,104.72c.5-.66,1.15-1.16,1.71-1.24-.13.02.61.02.38,0,.51.06,1.03.24,1.51.4,2.22.74,4.27,1.75,6.63,2s4.75-.51,7.02-1.39c2.41-.94,4.93-1.32,7.4-2.03,1.33-.38,2.6-.94,3.93-1.31s2.62-.36,3.96-.38c3.14-.06,6.28.03,9.43.05,6.25.03,12.51,0,18.76,0,12.67,0,25.35.07,38.02-.15,6.42-.11,12.84-.23,19.27-.14,3.08.04,6.21.02,9.27.33,2.84.29,5.58,1.14,8.45,1.24,3.19.11,6.24,1.25,9.44,1.28s5.49-1.4,8.34-2.18c2.21-.61,4.23.8,5.45,2.59s1.32,3.95,1.31,6.13c-.02,3.22,4.98,3.22,5,0,.02-2.39-.19-4.8-1.14-7.02-1-2.35-2.81-4.25-4.97-5.6-2.51-1.56-5.3-1.55-8.02-.58-2.51.89-4.69,1.93-7.42,1.56-1.42-.2-2.82-.59-4.24-.83-1.64-.27-3.25-.26-4.9-.41-3.09-.3-6.07-1.15-9.19-1.29-6.57-.29-13.15-.28-19.72-.19-13.33.18-26.66.26-40,.26h-20.03c-3.32,0-6.65-.05-9.97-.07-2.98-.02-6.17-.2-9.04.76-1.51.51-2.98,1.06-4.52,1.45s-3.14.63-4.66,1.14c-2.39.79-4.81,2.27-7.41,1.73-2.38-.49-4.5-1.84-6.91-2.21-3.23-.49-5.58,1.08-7.47,3.58-.82,1.08-.17,2.8.9,3.42,1.28.75,2.6.18,3.42-.9h0Z"/>
  <path d="M429.67,109.82c3.22,0,3.22-5,0-5s-3.22,5,0,5h0Z"/>
  <path d="M955.04,103.58c-.66,17.83.04,35.67-.01,53.5-.03,8.78.62,17.44,1.6,26.16s1.89,17.1,2.1,25.72c.11,4.77.2,9.54.83,14.27.32,2.4.06,4.78.33,7.16.21,1.93,1.33,3.76,1.12,5.71-.14,1.34,1.25,2.5,2.5,2.5,1.47,0,2.36-1.15,2.5-2.5.2-1.87-.5-3.44-.98-5.19-.54-1.97-.05-4.1-.25-6.11-.42-4.21-.87-8.34-.98-12.58-.22-8.59-.83-17.08-1.79-25.63s-2.01-17.32-2-26.04-.07-17.75-.17-26.62c-.12-10.12-.17-20.24.2-30.36.12-3.22-4.88-3.21-5,0h0Z"/>
  <path d="M965.83,241.84c10.03,6.88,21.71,10.7,33.29,14.11,6.08,1.79,12.21,3.34,18.42,4.59,3.35.67,6.72,1.34,10.1,1.77,3.09.4,6.13.17,9.2-.3,1.62-.25,3.27-.73,4.9-.88,1.72-.15,3.39.35,5.12.06,1.51-.25,2.68-.98,3.85-1.91.66-.53,1.55-1.51,2.33-1.58,1.35-.11,2.5-1.07,2.5-2.5,0-1.26-1.15-2.62-2.5-2.5s-2.51.47-3.61,1.24c-.88.61-1.64,1.41-2.53,1.98-.96.61-2.14.39-3.28.3-1.58-.14-3.03.07-4.58.36-2.86.54-5.71,1.03-8.64.96-3.09-.07-6.18-.79-9.21-1.36-12.01-2.28-24-5.52-35.45-9.82-6.11-2.29-12.01-5.14-17.41-8.83-1.11-.76-2.77-.21-3.42.9-.72,1.24-.22,2.66.9,3.42h0Z"/>
  <path d="M1056.74,246.84c0-8.99-.36-17.98-.12-26.97s1.08-17.78,1.25-26.69-.09-18.08-.21-27.12c-.06-4.52-.07-9.03.06-13.55s.63-8.5,1.1-12.77c.54-4.96.31-10.01.31-15s0-10.13,0-15.2c0-3.22-5-3.22-5,0v13.48c0,4.46.16,8.97-.05,13.43-.2,4.23-1.03,8.39-1.23,12.62-.21,4.5-.25,9.02-.23,13.52.06,9.04.38,18.08.29,27.13s-.77,17.8-1.17,26.71c-.46,10.13-.01,20.27,0,30.4,0,3.22,5,3.22,5,0h0Z"/>
  <path d="M959.35,104.15c9.7,8.04,23.03,7.83,34.38,12.11,3.47,1.31,6.85,2.49,10.57,2.89s7.13.12,10.69.09c7.39-.06,14.51-1.14,21.67-2.95,3.97-1,7.86-2.16,11.68-3.63,1.79-.69,3.53-1.44,5.23-2.33,1.58-.82,3.13-1.67,4.91-1.95,1.33-.21,2.08-1.88,1.75-3.08-.39-1.42-1.74-1.96-3.08-1.75-3.04.48-5.59,2.37-8.36,3.58-3.34,1.46-6.86,2.58-10.37,3.53-6.62,1.78-13.38,3.38-20.25,3.56-3.54.1-7.11.19-10.65.12-3.34-.07-6.42-.69-9.56-1.81s-6.01-2.29-9.14-3.11c-2.84-.75-5.72-1.33-8.59-1.96-6.03-1.33-12.49-2.8-17.36-6.84-1.04-.86-2.52-1.02-3.54,0-.89.89-1.04,2.67,0,3.54h0Z"/>
  <path d="M961.78,102.41c6.87-2.86,13.72-5.85,20.88-7.94,3.47-1.02,7.03-1.85,10.63-2.29,3.86-.47,7.73-.46,11.6-.37,7.53.16,14.96.95,22.07,3.59,3.45,1.28,6.94.59,10.48,1.2s7.02,1.76,10.56,2.51c1.86.39,3.76.68,5.57,1.29.58.2,1.11.44,1.61.78-.34-.23.25.21.35.3.24.22.48.45.71.68,1.01,1.03,1.89,2.17,2.64,3.4.32.52.74,1.28.91,1.69.02.04.17.49.22.68.03.11.06.23.08.34.09.39-.03-.56,0,.07.11,3.21,5.12,3.22,5,0-.1-2.93-1.93-5.6-3.68-7.83s-3.85-4.09-6.7-5.01c-1.69-.55-3.46-.83-5.2-1.19s-3.51-.87-5.26-1.32c-1.95-.5-3.92-.98-5.91-1.3s-3.87-.35-5.86-.35c-1.85,0-3.34-.48-5.07-1.09-1.93-.68-3.9-1.25-5.89-1.69-3.98-.89-8.06-1.36-12.12-1.59-8.03-.45-16.02-.28-23.88,1.56-8.68,2.03-16.87,5.64-25.06,9.05-1.25.52-2.14,1.66-1.75,3.08.32,1.18,1.82,2.27,3.08,1.75h0Z"/>
  <path d="M1054.24,251.73c3.22,0,3.22-5,0-5s-3.22,5,0,5h0Z"/>
  <path d="M1057.59,252.88c1.29-2.55,2.42-5.18,3.35-7.88.41-1.18.73-2.4,1.14-3.58.36-1.04.98-1.96,1.59-2.86,1.45-2.19,2.53-4.29,2.78-6.94.22-2.37-.12-4.73-.16-7.1-.2-12,.3-23.98.77-35.96.24-6.03.45-12.07.41-18.11-.04-5.53-.38-11.06-.47-16.59s0-10.85,1.04-16.15c.51-2.59.91-5.11.93-7.76s-.18-5.49-.27-8.24c-.15-4.63.58-9.35-.74-13.87-.51-1.73-1.28-3.71-2.86-4.74-1.9-1.23-4.08-.5-5.48,1.1-.89,1.01-1,2.54,0,3.54.91.91,2.64,1.02,3.54,0,.1-.12.26-.25.36-.38.28-.39.09,0-.14.04-.47.1.41,0-.17.03-.26.01-.47,0-.72-.1-.13-.05-.14-.11-.16-.1-.09.08-.09-.21.11.15-.29-.53.1.23.19.39.06.1.26.54.07.1.06.14.11.28.16.43.1.29.2.59.29.88.19.64.34,1.29.46,1.95.04.24.08.49.12.74-.11-.74-.02-.14,0,.04.06,1.39.06,2.78.02,4.17-.06,2.6-.06,5.18.06,7.78s.25,4.94.15,7.41-.69,4.68-1.06,7.05c-.82,5.23-.97,10.51-.88,15.79s.39,10.32.46,15.49c.07,5.67-.11,11.35-.33,17.01-.43,11.34-.85,22.65-.85,34,0,2.76.12,5.49.22,8.24.04,1.19.08,2.42-.21,3.59-.26,1.05-.84,1.95-1.43,2.85-.65.98-1.34,1.95-1.86,3.01-.65,1.33-1.02,2.75-1.47,4.16-.89,2.73-1.96,5.37-3.26,7.94-1.45,2.86,2.86,5.4,4.32,2.52h0Z"/>
  <path d="M1060.21,108.47c3.22,0,3.22-5,0-5s-3.22,5,0,5h0Z"/>
  <path d="M967.66,98.18c4.62-4.7,9.49-9.88,16.02-11.78,4.09-1.19,8.28-.16,12.44-.74,1.89-.26,3.73-.79,5.61-1.08,2.01-.31,3.97-.96,5.99-1.23,1.87-.25,3.47.54,5.24.97,1.94.48,3.96.45,5.95.34s4.07-.37,6.08-.13c1.86.22,3.7.84,5.48,1.4,3.8,1.19,7.59,2.09,11.48,2.94,3.36.73,6.98,1.42,9.77,3.54s5.3,5.14,7.64,7.84c1.82,2.1,3.61,5.95,3.22,8.62-.19,1.33.33,2.69,1.75,3.08,1.18.32,2.88-.4,3.08-1.75.54-3.68-.59-7.34-2.41-10.53-1.71-3.01-4.41-5.58-6.79-8.06-2.8-2.92-5.84-5.03-9.71-6.24s-7.93-1.77-11.85-2.8c-4.23-1.11-8.33-2.96-12.76-3.11-2.11-.07-4.21.2-6.32.26-.94.03-1.92.05-2.85-.13-1.04-.2-2.03-.6-3.04-.88-2.17-.59-4.28-.45-6.46.05s-4.25.85-6.38,1.29-4.05.84-6.2.81c-2.35-.03-4.69-.26-7.03.04-8.89,1.14-15.47,7.62-21.46,13.72-2.26,2.3,1.28,5.84,3.54,3.54h0Z"/>
  <path d="M966.12,108.42c1.33,2.77,3.04,5.3,5.52,7.16,2.28,1.7,5.09,2.56,7.85,3.1,2.1.41,4.1.38,6.22.39,2,.02,3.78.79,5.72,1.14,1.02.19,2.05.29,3.08.24.95-.04,1.98-.24,2.91.06,1.69.54,3.16,1.82,4.82,2.51,3.99,1.65,8.1,3.35,12.47,3.51s8.17-1.19,12.28-1.6,8.38-.29,12.32-1.54,6.97-3.58,9.91-6.16c1.34-1.18,2.6-2.48,3.98-3.6,1.01-.82,2.44-1.85,3.63-2.85,2.75-2.31,5.23-5.25,4.59-9.07-.23-1.33-1.87-2.08-3.08-1.75-1.41.39-1.97,1.74-1.75,3.08-.06-.36-.02.23-.03.35.05-.38-.09.23-.13.34.1-.29-.22.41-.27.51-.09.16-.35.54-.37.57-.83,1.08-1.94,2-2.99,2.86-2.03,1.64-4.1,3.31-6.07,5.1-2.42,2.2-5.07,4.5-8.19,5.62-3.47,1.25-7.28,1.17-10.91,1.5s-7.39,1.43-11.13,1.64c-3.97.22-7.65-1.18-11.28-2.64-1.61-.65-3-1.52-4.53-2.33-1.79-.95-3.54-1.24-5.55-1.12-1.83.11-3.33-.24-5.08-.72-1.97-.53-3.9-.65-5.92-.61-3,.07-6.38-.64-8.79-2.04-2.25-1.31-3.68-3.57-4.93-6.17-.58-1.22-2.32-1.54-3.42-.9-1.24.73-1.48,2.2-.9,3.42h0Z"/>
  <path d="M965.78,114.32c.77,13.97,3.57,27.77,3.58,41.79,0,3.22,5,3.22,5,0-.02-14.01-2.81-27.82-3.58-41.79-.18-3.2-5.18-3.22-5,0h0Z"/>
  <path d="M975.45,193.23c3.22,0,3.22-5,0-5s-3.22,5,0,5h0Z"/>
  <path d="M963.74,243.33c2.35,3.45,4.92,6.8,7.78,9.84,2.66,2.83,5.49,4.84,9.03,6.43,7.39,3.3,14.64,6.9,22.57,8.73,8.53,1.97,17.09,1.81,25.49-.67,3.96-1.17,7.95-2.56,11.54-4.64s6.58-4.39,9.94-6.48c3.6-2.25,7.29-4.58,10.3-7.6,1.49-1.5,2.47-3.41,3.95-4.89s3.47-2.15,4.81-3.79c.85-1.04,1.02-2.51,0-3.54-.88-.88-2.68-1.05-3.54,0-1.01,1.24-2.42,1.89-3.67,2.85-1.65,1.25-2.6,2.92-3.88,4.51-2.15,2.69-5.14,4.7-8,6.56-3.07,1.99-6.13,3.98-9.18,6.01s-6.33,3.73-9.89,4.98-7.59,2.45-11.53,2.89-7.87.29-11.72-.36-7.72-1.75-11.44-3.11-6.92-2.98-10.37-4.52-6.91-2.9-9.66-5.64c-3.07-3.07-5.77-6.5-8.21-10.08-1.8-2.64-6.14-.15-4.32,2.52h0Z"/>
  <path d="M1303.54,150.92c-1.15-7.94-2.42-15.87-3.22-23.85-.78-7.77-.69-15.54-1.04-23.33-.17-3.77-.36-7.55-.02-11.32.3-3.39,1.03-6.77,1.54-10.14.17-1.16.22-2.57.75-3.64-.12.25.34-.66.13-.39-.06.07-.18-.05-.21-.06.26.14.53.52.71.75,1.9,2.53,2.65,6.19,3.16,9.25.57,3.48.58,7.05.56,10.56-.02,3.74-.02,7.5-.19,11.24s-.42,7.4-.35,11.11c.04,1.94.17,3.87.45,5.79s1.12,3.48,1.56,5.28c.8,3.25-.39,7.1,2.03,9.86,2.16,2.46,5.59,1.4,6.91-1.33.72-1.49.97-3.15.91-4.8-.06-1.74-.48-3.52-.24-5.27.23-1.64.79-3.21,1-4.86.24-1.94-.21-3.83-.12-5.77s.92-3.82,1.14-5.77c.24-2.14.18-4.34.21-6.49.06-4.4.02-8.8-.1-13.2-.05-2.05-.28-4.01-.72-6.01-.19-.89-.41-1.78-.46-2.69-.02-.37-.03-.74-.01-1.11,0-.23.02-.46.05-.69-.04.27-.03.25.02-.07.22-1.19.57-2.37,1.13-3.43.31-.59.59-1.07,1.02-1.51-.03.03.64-.52.36-.32.11-.08.45-.21.24-.18l-1.77-.73c.3.37.56,1.8.69,2.57.19,1.14.29,2.3.52,3.43.28,1.38.67,2.71.83,4.11.19,1.63.23,3.28.24,4.92.03,7.08-.04,14.16,0,21.24.02,3.28.14,6.57.56,9.83.18,1.43.52,2.86.52,4.31,0,1.37-.1,2.77.29,4.1.77,2.61,3.19,5.53,5.97,6.03,3,.55,5.19-1.87,6.2-4.4,1.64-4.1.9-8.78.73-13.06-.12-2.95-.03-5.9-.17-8.85-.16-3.33-.71-6.59-.97-9.91s.05-6.41.09-9.61c.03-2.27-.28-4.52-.41-6.78-.06-1.05-.09-2.11-.03-3.16.05-.84.09-1.51.57-1.96,1.24-1.14,3.73-1.04,5.34-1.27-.51.07.12-.07.06.03-.04.07-.73-.5-.28-.14-.15-.13-.16-.37-.07-.03-.13-.52-.02,0,0,.12.19,1.07.37,2.14.53,3.21.48,3.17.76,6.44.6,9.64s-.9,6.38-1.02,9.6.17,6.53.17,9.8c0,1.62-.03,3.26-.26,4.87-.22,1.52-.65,3-.75,4.54-.18,2.67.82,5.25.79,7.93-.03,2.9.38,6.52,3.26,8.03,2.61,1.37,5.16-.47,6.66-2.54,1.83-2.52,2.05-5.46,2.32-8.46.3-3.28.94-6.48,1.04-9.79.19-6.64-.58-13.35.44-19.96.49-3.15,1.23-6.26,2.16-9.3.52-1.68,1-3.69,1.67-5.04.2-.4.42-.81.68-1.17-.2.28.67-.66.34-.39.6-.47.9-.52,1.53-.45.26.02.57.1.82.2-.1-.04-.39-.18.04.04.6.31-.18-.18.12.08.09.08.41.45.12.08.53.68.52.89.73,1.88.27,1.31.12,3.72-.08,5.46-.06.49-.18,1.3-.31,2.09-.16.97-.32,1.94-.49,2.91-.62,3.46-1.43,6.88-2.02,10.34s-.66,6.78-.56,10.23c.2,6.86-.04,13.7-.6,20.54-.27,3.32-.71,6.6-1.11,9.9s-.14,6.5-.12,9.78-.48,6.5-.96,9.74-1.05,6.69-1.66,10.03c-.9,4.91-.87,11.17-4.45,15.04-1.42,1.54-3.35,2.56-4.51,4.33-.61.93-.98,2.02-1.31,3.07-.55,1.72-1.21,3.39-1.79,5.1-1.05,3.09-1.19,6.05-.56,9.25.54,2.76,1.63,5.47,1.77,8.3.17,3.46.05,6.96.02,10.42s.01,6.93-.11,10.39c-.24,6.73-1.03,13.46-.94,20.21s1.61,13.39,1.99,20.14c.19,3.45.36,6.9.85,10.33s.94,6.75,1.1,10.18.14,6.73.16,10.09c.02,3.08.24,6.16.35,9.24.19,5.39.48,12.09-2.89,16.67-.68.92-1.59,1.84-2.62,2.37-.78.4-1.11.49-1.75-.02-1.9-1.5-2.38-4.55-2.78-6.76-.58-3.19-1.2-6.37-1.64-9.59-.46-3.39-.8-6.8-1.32-10.19s-1.25-6.89-1.7-10.36-.12-6.78-.15-10.17c-.05-6.89-1.84-13.76-2.94-20.53s-1.27-13.33-1.09-20.12c.18-6.81.56-13.62,1.39-20.39.43-3.44.69-6.83.83-10.3s.85-6.73.84-10.13.03-6.5-.02-9.74c-.02-1.48-.15-2.95-.4-4.4-.28-1.61-.99-3.02-1.42-4.57s-.81-2.89-1.67-4.19-1.91-2.53-2.78-3.85c-1.58-2.4-3.17-4.82-5.27-6.81s-4.05-3.96-5.73-6.35-3.2-4.95-4.75-7.46c-3.03-4.9-6.09-9.69-6.9-15.51-.19-1.34-1.9-2.07-3.08-1.75-1.44.4-1.93,1.73-1.75,3.08,1.09,7.84,6.04,14.67,10.19,21.2,2.11,3.31,4.41,6.62,7.32,9.28,1.38,1.26,2.69,2.52,3.78,4.05s2.03,3.15,3.15,4.65c.54.72,1.14,1.41,1.62,2.17.57.89.77,1.81,1.05,2.82.52,1.85,1.34,3.49,1.53,5.44s.1,4.05.06,6.08c-.04,2.13.08,4.25.06,6.38-.02,2.3-.47,4.51-.67,6.79s-.21,4.47-.32,6.7c-.23,4.53-1.04,9.04-1.41,13.56s-.56,9.01-.68,13.51-.22,9,.23,13.49,1.28,9.17,2.09,13.73c.76,4.27,1.66,8.58,1.71,12.92.03,2.31-.11,4.61-.07,6.92s.36,4.71.74,7.05c.72,4.45,1.49,8.87,2.04,13.35s1.28,8.84,2.05,13.25c.65,3.69,1.46,7.77,4.43,10.38,3.17,2.79,6.95,1.65,9.86-.9s4.39-6.13,5.12-9.75c.83-4.1.84-8.31.68-12.47s-.31-8.36-.34-12.55c-.03-4.45-.18-8.91-.76-13.33-.29-2.21-.7-4.39-.9-6.61s-.31-4.58-.44-6.87c-.25-4.45-.98-8.79-1.49-13.2s-.55-8.8-.34-13.24.59-8.92.77-13.39c.18-4.59.13-9.19.15-13.79s.13-8.65-.95-12.92c-.46-1.81-1.05-3.63-1.24-5.5-.2-1.97.2-3.71.84-5.56.68-1.95,1.25-4.07,2.07-5.95.04-.1.17-.33.25-.48.07-.12.42-.57.16-.27.36-.42.8-.77,1.23-1.11,2.86-2.31,4.96-4.97,6.13-8.49s1.39-7.03,2.04-10.52c.82-4.41,1.53-8.84,2.15-13.29.31-2.26.67-4.53.73-6.82.05-2.13-.07-4.27-.11-6.4-.09-4.34.82-8.64,1.2-12.96.4-4.54.69-9.1.8-13.66s-.23-9-.07-13.5,1.36-8.81,2.19-13.17c.52-2.74,1.02-5.52,1.3-8.31.26-2.59.29-5.38-.73-7.82-1.14-2.73-3.7-4.34-6.68-4.17-6.47.37-7.91,8.41-9.24,13.42-1.09,4.13-1.83,8.39-2.03,12.66-.2,4.55.09,9.11.05,13.67s-.8,8.56-1.2,12.87c-.14,1.52-.43,3.06-1.41,4.28-.2.25-.45.45-.67.67-.04.04-.18-.05-.08.02.02.02.88.07.78.2-.05.06-.48-.83-.51-.94-.55-1.69-.09-3.66-.3-5.41s-.8-3.37-.71-5.12c.1-1.98.72-3.93.88-5.92.18-2.2.15-4.42.08-6.63s-.17-4.23-.13-6.35.38-4.33.67-6.49c.58-4.38.4-8.71-.2-13.09-.36-2.64-.34-6.3-3-7.78-1.51-.84-3.29-.57-4.91-.3-1.52.25-2.99.56-4.4,1.21-6.16,2.88-3.34,11.64-3.43,16.91-.04,2.17-.18,4.34-.18,6.51s.25,4.15.52,6.23c.55,4.28.68,8.6.7,12.91.01,2.89.3,5.77.31,8.66,0,1.4-.04,2.78-.37,4.13-.23.94-.53,1.82-1.15,2.27.29-.21.31.17-.14-.22-.27-.24-.53-.49-.77-.77-.46-.54-.9-1.15-1.02-1.87s-.02-1.48-.02-2.2c0-.99-.11-1.96-.27-2.93-.69-4.28-.8-8.6-.81-12.93,0-4.66-.02-9.32-.02-13.98,0-4.39.19-8.81-.57-13.15-.3-1.71-.75-3.37-.98-5.09s-.49-3.33-1.29-4.82c-2.15-4.03-6.52-.83-8.18,1.85s-2.51,5.91-2.23,8.95c.18,1.92.77,3.76,1.02,5.67.28,2.09.17,4.29.2,6.39.07,4.48.06,8.97-.07,13.45-.06,1.95-.44,3.64-.88,5.53-.51,2.2-.26,4.19-.17,6.41.08,1.92-.59,3.68-.91,5.56-.35,2.11-.11,4.05.02,6.16.05.76.09,1.54-.1,2.28-.08.32-.22.57-.32.84-.05.14.22.02-.05.07.29-.05.54-.21.84-.17.13.02.35.16.45.15.25-.03.07.31.01-.12-.12-.88-.34-1.7-.37-2.61-.07-2.11-.12-4.19-.81-6.21s-1.21-3.68-1.36-5.76c-.31-4.24-.03-8.51.17-12.75s.22-8.29.24-12.43-.1-8.43-.86-12.58c-.68-3.72-1.86-7.85-4.34-10.8-1.07-1.28-2.59-2.2-4.3-2.1-2,.12-3.68,1.68-4.43,3.46-.61,1.44-.79,2.97-1.03,4.5-.31,2-.56,4.01-.91,6-.74,4.16-1.03,8.23-.91,12.46s.37,8.3.38,12.47c0,4.55.28,9.1.7,13.62.83,8.86,2.25,17.66,3.52,26.46.19,1.34,1.89,2.07,3.08,1.75,1.44-.39,1.94-1.73,1.75-3.08h0Z"/>
  <path d="M1350.55,336.78c2.22-4.56,4.69-9.03,6.32-13.85,1.76-5.2,2.22-10.67,2.26-16.12.04-5.74.03-11.42-.84-17.1s-2.43-10.83-3.18-16.32c-.39-2.86-.61-5.75-1.14-8.59s-1.32-5.36-1.84-8.07c-1-5.24-.28-10.68-.22-15.98.06-4.83-.74-9.66-.37-14.49.17-2.22.92-4.29,1.5-6.42.69-2.51.88-4.97.94-7.57.08-2.84.77-5.6,1.07-8.41.16-1.48.08-2.98.08-4.46,0-.93.02-1.87.08-2.8.07-1.03.09-1.38.31-2.31.09-.41.21-.81.35-1.21.03-.08.2-.43.02-.06.1-.2.21-.4.33-.59.06-.09.29-.35,0-.02.12-.13.24-.26.38-.38.24-.21-.45.16.1-.04.5-.18-.37.1.22-.08,1.29-.39,2.11-1.75,1.75-3.08-.39-1.43-1.73-1.94-3.08-1.75l-.68.1c-1.34.2-2.07,1.89-1.75,3.08.39,1.43,1.73,1.94,3.08,1.75l.68-.1-1.33-4.82c-7.24,2.15-4.82,12.13-5.65,17.55-.4,2.61-.91,5.22-.96,7.87-.04,2.44-.34,4.58-1.03,6.93s-1.29,4.72-1.45,7.22-.02,4.85.13,7.26.3,4.85.26,7.29c-.05,2.8-.23,5.59-.26,8.38s.13,5.67.66,8.47,1.37,5.51,1.88,8.3.72,5.78,1.14,8.66,1.08,5.5,1.66,8.24c1.19,5.58,2.14,11.13,2.12,16.85-.02,6.23.33,12.54-1.22,18.63-1.4,5.51-4.19,10.45-6.67,15.52-.59,1.21-.33,2.7.9,3.42,1.1.64,2.83.32,3.42-.9h0Z"/>
  <path d="M1361.08,189.24c.47-2.06.92-4.14,1.58-6.15.6-1.86,1.58-3.43,2.47-5.15,1.88-3.66,2.28-7.87,3.28-11.81,1.08-4.25,1.84-8.58,2.67-12.88.42-2.17.22-4.29.41-6.47.17-1.97.68-3.91.84-5.89.35-4.18.19-8.45.2-12.65,0-2.14.05-4.28-.38-6.39-.38-1.88-.86-3.58-.82-5.52.08-4.32.12-8.63.12-12.95,0-2.16.01-4.32-.04-6.48s-.03-4.15.57-6.2c1.13-3.85,2.67-8.25,1.11-12.23-.85-2.17-2.78-3.88-5.13-4.19s-4.41.89-5.93,2.56c-2.17,2.37,1.36,5.92,3.54,3.54.7-.77,1.53-1.62,2.44-.76s.71,2.36.65,3.45c-.2,3.71-2.06,7.03-2.25,10.77-.2,3.96.03,7.99.03,11.95,0,2.02,0,4.03,0,6.05s-.2,3.93-.1,5.88.62,3.63.99,5.45.2,3.73.2,5.55c-.01,3.97.13,8-.18,11.95-.14,1.83-.57,3.59-.79,5.41s.05,3.76-.25,5.6c-.65,3.91-1.46,7.85-2.37,11.71-.51,2.17-1.03,4.32-1.49,6.5-.41,1.94-.81,3.94-1.74,5.71-1,1.89-2.03,3.68-2.72,5.71-.74,2.15-1.22,4.38-1.73,6.6-.72,3.13,4.1,4.47,4.82,1.33h0Z"/>
  <path d="M1339.38,75.64c.47-.25.94-.5,1.41-.74.22-.11.43-.22.65-.31.3-.13.13-.06.3-.12.21-.07.42-.14.63-.2.06-.02.81-.13.29-.08.07,0,.69-.01.32,0-.17,0-.51-.04-.15,0-.19-.02-.25-.41-.19-.13.02.12.07.13.14.36.18.6.21,1.24.24,1.86.05,1.5-.07,3-.15,4.5-.36,6.79-.07,13.66-.07,20.45,0,3.22,5,3.22,5,0v-12.44c0-3.82.19-7.63.22-11.45.03-2.99-.4-7.04-3.84-7.98-2.56-.7-5.16.81-7.34,1.97-2.84,1.52-.31,5.84,2.52,4.32h0Z"/>
  <path d="M1318.59,77.01c1.12-.12,1.68-.09,2.48.39.09.05.46.36.23.16.2.17.39.37.56.57-.23-.27.26.38.25.37.12.2.23.4.34.6.79,1.48,1.01,3.48.78,5.39-.4,3.41-1.73,6.64-2.05,10.08s1.4,6.44,1.06,9.74c-.14,1.35,1.25,2.5,2.5,2.5,1.47,0,2.36-1.15,2.5-2.5.37-3.64-1.57-7-.93-10.65.62-3.54,2.02-7,1.98-10.63-.06-5.51-3.41-11.69-9.72-11.01-1.34.14-2.5,1.05-2.5,2.5,0,1.24,1.15,2.65,2.5,2.5h0Z"/>
  <path d="M1305.24,73.93c.51-.02,1.02-.03,1.53,0,.2.01.4.02.61.05-.56-.08.12.04.19.06.16.05.31.09.47.14.27.08-.42-.3-.02,0,.11.08.24.16.36.22.27.15-.46-.23-.07-.03.2.1.28.54.01-.01.03.06.17.35.21.35.08.17.06.1-.08-.21l.06.17c.04.18.11.35.16.53s.19,1.09.13.55c.05.43.08.86.1,1.29.12,2.54-.08,5.08.03,7.62.07,1.5.27,2.99.58,4.46.28,1.32.55,2.54.43,3.9s1.23,2.5,2.5,2.5c1.45,0,2.38-1.15,2.5-2.5.14-1.64-.19-3.26-.53-4.85-.32-1.51-.49-2.99-.51-4.53-.04-2.66.2-5.34-.12-7.99-.24-1.98-.8-3.93-2.44-5.21-1.73-1.36-3.98-1.57-6.11-1.49-3.21.12-3.22,5.12,0,5h0Z"/>
  <path d="M1524.92,798.73c14.57,2.77,29.39,5.3,44.28,4.85,14.82-.46,29.39-3.47,44.15-4.55,3.67-.27,7.35-.51,11.01-.96s7.37-1.13,11.04-1.77c7.37-1.28,14.86-2.1,22.3-2.76,3.78-.33,7.56-.53,11.35-.5,3.57.02,7.14-.07,10.69-.5s7.05-1.22,10.53-2.22c2.97-.86,6.03-1.43,8.96-2.48s5.89-2.45,7.83-4.88c1.74-2.19,2.44-4.96,2.23-7.73s-1.09-5.44-2.19-8.02c-.5-1.17-1.01-2.34-1.74-3.39-.86-1.24-1.92-2.32-2.78-3.55-.81-1.16-1.24-2.48-1.9-3.72-.77-1.46-1.96-2.49-3.27-3.45-1.11-.81-2.11-1.56-3.05-2.56-1.13-1.2-2.29-2.38-3.51-3.49-2.39-2.17-5.02-4.17-7.94-5.56-3.19-1.52-6.4-3.01-9.59-4.52s-6.62-2.79-10.03-4.01-6.75-2.29-10.38-2.68c-7.16-.77-14.48-1.34-21.69-1.01-7.25.34-14.21,1.76-21.1,4.01-3.31,1.08-6.6,2.25-9.94,3.24s-6.86,1.74-10.23,2.82c-6.68,2.13-13.12,5.01-19.46,7.99-6.53,3.08-12.82,6.63-18.96,10.41-3.12,1.92-6.16,3.95-9.06,6.2-1.18.92-2.32,1.9-3.55,2.75-1.37.94-2.77,1.82-4.07,2.85-2.44,1.92-4.34,4.66-6.2,7.12s-3.8,5.26-4.42,8.34-.19,6.25-.17,9.39,5.02,3.22,5,0c-.02-2.82-.61-5.87.12-8.63s2.71-5.23,4.45-7.42,3.45-4.39,5.85-6.02c2.6-1.76,5-3.73,7.53-5.58,5.55-4.07,11.59-7.55,17.63-10.83s12.01-6.09,18.22-8.65c3.05-1.25,6.13-2.41,9.28-3.38s6.56-1.7,9.81-2.68c6.52-1.96,12.86-4.55,19.57-5.84,6.78-1.3,13.78-1.41,20.65-.95,3.42.23,6.86.49,10.28.82s6.4,1.43,9.52,2.55,6.23,2.27,9.25,3.71,6.12,2.87,9.17,4.32c2.68,1.28,5.06,3.04,7.24,5.06s4.14,4.34,6.64,6.11c.97.69,1.74,1.35,2.27,2.44.65,1.35,1.17,2.65,2.07,3.86.78,1.04,1.69,2,2.44,3.07s1.26,2.23,1.74,3.41c1.68,4.11,2.85,8.95-1.47,11.63-2.47,1.53-5.28,2.28-8.07,2.99-3.05.77-6.06,1.75-9.13,2.42-6.78,1.47-13.6,1.04-20.47,1.35-7.23.33-14.45,1.25-21.64,2.13s-14.13,2.53-21.29,3.19-14.14,1.11-21.2,2.02-13.96,1.89-20.97,2.52-14.14.84-21.22.36-13.77-1.4-20.6-2.55c-3.49-.59-6.98-1.23-10.46-1.89-1.33-.25-2.7.37-3.08,1.75-.34,1.22.41,2.82,1.75,3.08h0Z"/>
  <path d="M1597.8,751.64c3.22,0,3.22-5,0-5s-3.22,5,0,5h0Z"/>
  <path d="M1626.69,747.79c3.22,0,3.22-5,0-5s-3.22,5,0,5h0Z"/>
  <path d="M1655.58,747.79c3.22,0,3.22-5,0-5s-3.22,5,0,5h0Z"/>
  <path d="M1671.95,761.27c3.22,0,3.22-5,0-5s-3.22,5,0,5h0Z"/>
  <path d="M1639.21,768.01c3.22,0,3.22-5,0-5s-3.22,5,0,5h0Z"/>
  <path d="M1592.03,774.75c3.22,0,3.22-5,0-5s-3.22,5,0,5h0Z"/>
  <path d="M1564.1,781.49c3.22,0,3.22-5,0-5s-3.22,5,0,5h0Z"/>
  <path d="M1618.99,778.6c3.22,0,3.22-5,0-5s-3.22,5,0,5h0Z"/>
  <path d="M1575.66,765.12c3.22,0,3.22-5,0-5s-3.22,5,0,5h0Z"/>
  <path d="M1681.58,776.67c3.22,0,3.22-5,0-5s-3.22,5,0,5h0Z"/>
  <path d="M1537.22,802.03c-.76,3.72-1.04,7.5-1.45,11.27-.19,1.76-.56,3.52-.69,5.29-.05.64.03,1.34-.1,1.96s-.48,1.13-.61,1.72c-.75,3.43,2.73,4.48,5.36,4.69.44.04.89.06,1.33.09.13,0,.85.15.16,0,.47.1.95.2,1.42.3,1.81.39,3.61.83,5.42,1.25,3.62.86,7.22,1.61,10.92,2.05s7.2,1.26,10.84,1.69c7.24.85,14.54,1.03,21.83,1.04,7.38.01,14.77.04,22.15-.29,3.62-.16,7.22-.21,10.84-.25s7.53-.51,11.28-1.1c7.01-1.11,13.9-2.24,20.69-4.38,3.23-1.02,6.38-2.45,9.7-3.14,1.68-.35,3.37-.62,5.04-1.02,1.76-.42,3.6-.55,5.3-1.23,1.55-.61,2.8-1.58,4.13-2.55,1.22-.89,1.87-1.02,3.33-1.62s2.94-1.49,3.38-3.17c.4-1.52.02-3.43.03-5,0-1.95.02-3.9-.07-5.85-.08-1.77-.21-3.59.01-5.36.31-2.45,1.72-5.62.08-7.88-.7-.97-1.64-1.38-2.82-1.15-2.07.41-3.92,1.5-5.99,1.92-2.39.49-4.81.92-7.23,1.28-4.75.71-9.62.75-14.4.56s-9.84-.84-14.77-1.18-9.47.26-14.24.75-9.72.8-14.56.83-9.86.05-14.79.59-9.79,1.37-14.69,1.33-9.84-.39-14.77-.32c-2.65.03-5.25.5-7.9.6s-4.93.53-7.37,1.15-4.65,1.11-7.12,1.11c-1.29,0-2.59-.09-3.88-.02-1.37.07-2.69.43-4.04.63s-2.07,1.88-1.75,3.08c.39,1.43,1.74,1.95,3.08,1.75.98-.15,1.95-.43,2.95-.46,1.14-.03,2.28.02,3.42.02,2.38,0,4.67-.3,6.98-.86,2.04-.5,4.09-1.17,6.19-1.34,2.28-.18,4.57-.36,6.85-.54,4.85-.4,9.86-.1,14.72.13s9.77-.39,14.65-.94c4.86-.55,9.67-.89,14.56-.89s9.92-.25,14.88-.6,9.43-1.23,14.2-1.11,9.81.87,14.72,1.17c5.44.33,10.94.37,16.36-.32,2.73-.34,5.43-.85,8.14-1.35,2.48-.46,4.69-1.65,7.15-2.13l-2.82-1.15c.26.35.04-.07.02-.23.02.18.02.36.02.55,0,.53-.05.85-.14,1.29-.22,1.11-.48,2.19-.61,3.32-.38,3.17.02,6.39.01,9.57,0,1.49-.07,3,0,4.49.01.25.05.5.07.75,0,.14.16,1.35.19.29,0-.03.14-.26.17-.24-.05-.03-.56.29-.61.31-1.02.44-2.11.68-3.08,1.24-1.19.69-2.19,1.66-3.36,2.38-1.26.77-2.65.97-4.09,1.22-1.69.3-3.34.75-5.02,1.06-3.25.6-6.21,1.71-9.32,2.76-6.24,2.1-12.54,3.48-19.04,4.49-3.32.51-6.62,1.14-9.97,1.39s-6.7.11-10.05.19c-6.88.17-13.75.49-20.64.5-6.82.01-13.65.05-20.46-.37-3.32-.21-6.67-.47-9.96-1.01-1.61-.26-3.19-.65-4.81-.89-1.77-.26-3.56-.42-5.33-.68-3.83-.56-7.59-1.62-11.36-2.48-1.54-.35-3.09-.76-4.68-.89-.53-.05-1.06-.07-1.59-.11-.08,0-.66-.08-.3-.02-.24-.04-.51-.16-.75-.17l.17.09c-.38-.23-.27-.1.33.41.53.86.05,1.48.43.51.3-.77.46-1.46.52-2.29.16-1.92.38-3.81.61-5.73.46-3.8.67-7.63,1.43-11.39.27-1.32-.38-2.7-1.75-3.08-1.24-.34-2.8.42-3.08,1.75h0Z"/>
  <path d="M1533.44,815.76c-2.91.79-5.75,1.97-7.53,4.53-1.49,2.13-2.79,5.89-1.29,8.28,1.96,3.11,5.66,3.16,8.81,4.01,3.58.97,6.8,2.99,10.22,4.39,7,2.88,14.67,4.6,22.21,5.14s15.44,1,23.16.89,15.95-.47,23.91-.79,16.02-.91,24.07-.98c3.94-.03,7.87-.16,11.77-.7s7.88-1.39,11.84-2c7.72-1.2,15.45-2.24,23.15-3.64,3.65-.66,7.8-1.35,10.99-3.38,1.67-1.06,2.99-2.52,3.54-4.45s.34-3.86.3-5.75-.31-3.84-.81-5.7c-.45-1.66-.66-3.59-1.85-4.91-1.11-1.24-2.93-1.89-4.4-2.59-1.74-.84-3.45-1.29-5.39-1.29-3.22,0-3.22,5,0,5,1.17,0,2.15.24,3.19.76.55.28,1.09.57,1.65.83.19.09,1.27.6,1.2.51.28.37.3,1.16.4,1.6.15.62.34,1.22.5,1.84.4,1.6.5,3.14.52,4.78.02,1.21.33,2.83-.24,3.95-.44.87-1.54,1.4-2.39,1.78-2.86,1.26-6.15,1.78-9.21,2.31-7,1.23-14,2.31-21.03,3.31-3.48.49-6.94,1.18-10.41,1.77s-7.22.87-10.88.94-7.11,0-10.67.13-7.23.46-10.85.65c-7.4.38-14.81.59-22.22.85-6.98.24-13.95.28-20.91-.22-3.52-.25-7.04-.32-10.55-.64s-6.75-1.03-10.07-1.87c-3.62-.91-7.22-2.02-10.61-3.61s-6.72-3.44-10.44-4.11c-1.34-.24-2.77-.35-3.9-1.18-.05-.04-.53-.43-.32-.28.37.26-.32.38.07.09l-.02.16c.04-.19.09-.37.14-.55.12-.43.25-.85.39-1.27.82-2.42,2.98-3.14,5.33-3.78,3.1-.84,1.78-5.67-1.33-4.82h0Z"/>
  <path d="M1693.67,830.78c-.59,3.94-1.17,7.86-1.19,11.85-.01,1.67-.2,3.32-.37,4.99s-.01,3.41-.2,5.09c-.28,2.52-2.3,3.33-4.46,3.93-3.3.92-6.7,1.48-10.11,1.79s-7.06.23-10.59.49c-3.86.28-7.69.89-11.55,1.2s-7.37.34-11.06.35-7.47.18-11.18-.25-7.05-1.21-10.57-1.78c-3.72-.6-7.41-.82-11.16-1.02s-7.78-.42-11.67-.33c-3.66.08-7.23.7-10.87.97s-7.39-.26-11.07-.47-7.42-.54-11.12-.9c-7.48-.73-14.98-1.27-22.44-2.14-1.99-.23-3.98-.5-5.95-.83s-4.04-.98-6.06-1.03c-.72-.02-1.39.14-2.08-.13-.79-.31-1.58-.77-2.26-1.28-1.1-.83-1.71-1.84-2.08-3.15-.98-3.49.4-6.8.51-10.3.02-.78-.08-1.53.19-2.28.34-.93.84-1.79,1.13-2.75.44-1.44.75-2.87,1.78-4.03,2.13-2.4-1.4-5.95-3.54-3.54-1.14,1.28-1.91,2.66-2.47,4.28-.24.71-.41,1.44-.64,2.14-.31.94-.86,1.79-1.14,2.74-.5,1.69-.22,3.49-.5,5.21-.32,1.97-.77,3.95-.72,5.96.08,3.07.97,6.44,3.23,8.64,1.2,1.17,2.67,2.1,4.2,2.77.91.4,1.77.69,2.77.74.91.04,1.75-.08,2.65.12,7.66,1.67,15.55,2.2,23.35,2.88s15.73,1.4,23.6,2.02c4.04.32,7.88.46,11.91-.04s7.64-.69,11.5-.62,8.1.32,12.15.55c3.73.21,7.38.95,11.05,1.6,4.04.72,8.04,1.24,12.14,1.26,3.87.01,7.75.01,11.62-.12,4.02-.14,8-.58,12-1.03,3.77-.43,7.51-.49,11.29-.66,4.33-.2,8.68-.7,12.91-1.67,3.47-.79,6.91-1.76,8.93-4.93,1.07-1.67,1.4-3.53,1.39-5.49,0-2.1.21-4.15.41-6.23.2-2.21.11-4.43.3-6.65s.53-4.42.86-6.62c.2-1.33-.33-2.69-1.75-3.08-1.18-.32-2.87.4-3.08,1.75h0Z"/>
  <path d="M1697.94,829.34c.16-.56.35-1.11.47-1.68.1-.48.18-.98.21-1.47s-.04-1-.12-1.49c-.08-.33-.23-.61-.45-.85-.18-.27-.41-.49-.7-.64-.29-.18-.6-.28-.93-.3-.33-.07-.66-.06-1,.04-.6.2-1.19.57-1.49,1.15l-.25.6c-.12.44-.12.89,0,1.33,0,.04.01.07.02.11l-.09-.66c.04.34.03.69-.01,1.03l.09-.66c-.1.74-.35,1.46-.56,2.17-.1.33-.12.66-.04,1,.02.33.11.64.3.93.16.29.37.53.64.7.24.22.52.37.85.45.64.15,1.36.11,1.93-.25s.96-.85,1.15-1.49h0Z"/>
  <path d="M1522.58,847.94c-3.12-.54-6.24-1.14-9.36-1.7-1.31-.24-2.65-.6-3.99-.53-1.48.08-2.88.66-4.07,1.52-1.04.75-1.96,1.61-2.76,2.6s-1.47,2.22-2.36,3.22c-.76.85-1.61,1.64-2.54,2.29-.17.12-.4.22-.54.35.19-.16.49,0,.25-.12-.22-.11-1.12,0-1.39.02-1.14.04-2.26.29-3.1,1.12-1.19,1.18-1.31,3.21-.05,4.37,1.86,1.72,4.6,1.41,6.85.82,2.09-.54,4-1.18,6.16-1.48,2.47-.34,4.91-1.31,7.42-.69,2.17.54,3.4,2.7,4.64,4.39,1.58,2.15,3.17,4.37,5.22,6.11,2.24,1.9,4.77,2.65,7.5,3.56s5.53,1.6,8.47,1.98,5.76.89,8.74.67c3.25-.24,6.46-.43,9.72-.29s6.2,0,9.32-.05,6.41,0,9.61-.04c6.33-.08,12.65-.37,18.97-.67s12.73-.76,19.1-.48c12.53.56,24.79,3.63,37.3,4.25,6.17.3,12.42-.11,18.42-1.61,6.09-1.52,12.11-3.33,18.11-5.16s11.84-3.71,17.78-5.5c4.53-1.36,9.27-2.66,13.25-5.29,3.21-2.12,5.51-5.01,7.07-8.5,1.43-3.2,2.58-8.55-2.06-9.75-2.86-.74-5.24.88-7.52,2.35s-4.66,2.99-7.09,4.26c-5.08,2.64-10.87,3.99-16.54,4.53-1.35.13-2.73.25-4.08.12-1.56-.14-2.75-.84-4.36-.41-1.85.5-2.38,2.83-1.1,4.18,2.78,2.92,7.56,4.3,11.41,2.93l-1.93-4.57c-4.12,2.82-8.91,4.5-13.38,6.67-1.09.53-2.18,1.02-3.2,1.67-.86.54-1.75,1.26-2.76,1.49-1.86.42-3.97-.7-5.48-1.69-2.12-1.38-4.24-2.27-6.77-2.58s-4.97.16-7.51.52c-.91.13-1.63.11-2.41-.35-.83-.5-1.54-1.08-2.48-1.39-2.36-.8-5.34.27-7.67.83-2.62.62-5.24,1.43-7.92,1.79-2.53.35-5.12.28-7.67.22-5.35-.12-10.7-.03-16.03-.57-5.44-.55-10.8-.84-16.26-.23s-11.06,1.69-16.61,2.45c-5.4.74-11.14,1.51-16.11-1.24-2.31-1.28-3.78-3.43-5.93-4.91-2.31-1.59-4.93-1.75-7.64-1.77-3.22-.02-3.22,4.98,0,5,2.1.02,3.95,0,5.59,1.49,1.77,1.63,3.31,3.33,5.45,4.51,4.62,2.55,9.77,2.93,14.93,2.38,5.66-.61,11.26-1.61,16.89-2.44,5.43-.81,10.87-1.09,16.35-.59,2.69.24,5.36.57,8.07.71s5.37.13,8.05.16,5.42.18,8.13.06,5.4-.59,8.06-1.22,5.45-1.56,8.21-1.86c.65-.07.73.06,1.43.53.92.62,1.88,1.16,2.98,1.38,2.55.49,5.02-.51,7.56-.58,2.33-.06,4.35.45,6.3,1.73,2.29,1.5,4.78,2.62,7.57,2.74s4.97-1.67,7.39-2.94c5.06-2.65,10.64-4.4,15.38-7.64,1.02-.7,1.55-1.93,1.02-3.12-.47-1.07-1.76-1.87-2.95-1.45-2.26.8-4.9.09-6.55-1.64l-1.1,4.18c-.26.07.08.03.25.09.27.09.53.17.8.23.64.14,1.33.21,1.98.26,1.29.1,2.58.02,3.86-.1,2.55-.23,5.09-.59,7.59-1.12,4.77-1.01,9.44-2.71,13.64-5.2,1.99-1.18,3.98-2.4,5.91-3.68.69-.46,1.44-1.04,2.25-1.27-.09.02.7-.09.66-.07.44-.22.07.28-.01-.01-.22-.19-.26-.23-.13-.11.13.13.09.08-.11-.16.15.17-.03,0,0-.05.12-.19.01-.02,0,.17,0,.14,0,.29-.02.43-.02.39.07-.38,0,.02-.03.16-.07.32-.11.48-.09.37-.21.74-.34,1.11-.32.9-.99,2.2-1.66,3.29-3.74,6.14-12.12,7.56-18.47,9.51-10.13,3.12-20.22,6.39-30.46,9.12-5.02,1.34-9.97,2.2-15.17,2.27s-10.22-.44-15.29-1.17c-10.4-1.5-20.83-3.27-31.37-3.27s-21.33,1.04-31.99,1.23c-5.34.1-10.67.12-16.01.22-2.69.05-5.38-.23-8.07-.18s-5.29.45-7.93.46c-2.44.01-4.89-.5-7.31-.82-2.22-.29-4.35-.97-6.47-1.67-1.98-.66-4.06-1.08-5.67-2.49s-2.98-3.2-4.28-4.96-2.65-3.83-4.49-5.2c-1.72-1.29-3.8-1.76-5.93-1.85-2.39-.1-4.63.68-6.97,1.01-1.95.27-3.69.7-5.56,1.26-.65.2-1.62.47-2.13.53-.22.03-.81.04-.82.04-.08,0-.24-.11-.14-.01l.73,1.77c-.11.92-.48,1.4-1.11,1.44-.13.01-.12.01.04,0,.19.03.42,0,.62,0,.42,0,.85,0,1.27-.04,1.46-.13,2.48-.89,3.6-1.77,2.08-1.63,3.37-3.61,4.95-5.67.66-.85,1.55-1.73,2.53-2.19s2.17-.05,3.22.13c3.12.56,6.23,1.16,9.36,1.7,1.33.23,2.69-.36,3.08-1.75.33-1.21-.41-2.84-1.75-3.08h0Z"/>
  <path d="M1520.54,868.81c-1.02,3.8-2.11,7.6-2.16,11.57-.04,3.32-.82,6.68-.42,9.99.21,1.71.88,3.31,2.37,4.28.73.48,1.51.51,2.35.61.99.12,1.91.48,2.86.76,3.86,1.13,7.83,1.42,11.83,1.57,1.78.06,3.57.11,5.35.3,1.94.21,3.84.71,5.72,1.2,3.73.97,7.47,1.75,11.28,2.33,7.92,1.2,15.84,2.01,23.83,2.44s15.55,1.2,23.31,1.89,15.91,1.68,23.89,2.03,15.61-.34,23.35-1.26c3.99-.47,7.97-1.08,11.95-1.64s7.65-1,11.43-1.77c1.96-.4,3.9-.87,5.82-1.43,1.72-.51,3.69-1.09,5.29-1.93,1.76-.92,2.54-2.64,2.77-4.53.16-1.35.04-2.74.28-3.82.9-4.13,1.22-8.25,1.26-12.46.01-1.18-.07-2.34-.31-3.49-.19-.92-.3-1.12-.08-1.88.56-1.92.72-3.86-.88-5.35-2.35-2.19-5.9,1.34-3.54,3.54-.35-.32-.05-.71-.31.17-.18.64-.36,1.23-.42,1.89-.12,1.49.51,2.91.53,4.4.05,3.05-.05,6.15-.55,9.16-.23,1.35-.6,2.68-.77,4.04-.14,1.15.03,2.36-.17,3.5,0,0-.32.63-.12.42-.05.05-.68.26-.94.35-1.27.43-2.5.93-3.79,1.3-6.2,1.76-12.59,2.44-18.95,3.39s-12.89,1.73-19.38,2.18c-13.23.92-26.35-.97-39.52-2.08-6.54-.55-13.1-1.23-19.66-1.59s-13.22-.96-19.82-1.84c-3.46-.46-6.9-1-10.31-1.76-3.58-.79-7.07-1.93-10.72-2.35s-7.45-.25-11.15-.67c-1.6-.18-3.17-.53-4.72-.95-.91-.24-1.79-.59-2.7-.81s-1.83-.23-2.75-.35l1.26.34c-.19-.12-.21-.47-.24-.77-.07-.65-.04-1.33-.02-1.99.06-2,.43-3.97.5-5.97s.1-3.85.5-5.8.97-3.91,1.49-5.85c.84-3.11-3.99-4.44-4.82-1.33h0Z"/>
</svg>